<svg xmlns="http://www.w3.org/2000/svg" width="920" height="470" viewBox="0 0 920 470">
<style>.title{font:700 22px -apple-system,BlinkMacSystemFont,"PingFang SC",sans-serif;fill:#172033}.axis{font:12px -apple-system,BlinkMacSystemFont,"PingFang SC",sans-serif;fill:#64748b}.legend{font:13px -apple-system,BlinkMacSystemFont,"PingFang SC",sans-serif;fill:#334155}</style>
<rect width="100%" height="100%" fill="#ffffff"/>
<text x="70" y="30" class="title">年度收益对比</text>
<rect x="70" y="54" width="12" height="12" fill="#2563eb"/><text x="88" y="65" class="legend">V2.9 最终组合</text><rect x="220" y="54" width="12" height="12" fill="#f97316"/><text x="238" y="65" class="legend">沪深300基准</text>
<line x1="70" x2="896" y1="410.0" y2="410.0" stroke="#e2e8f0"/><text x="60" y="414.0" text-anchor="end" class="axis">-27%</text><line x1="70" x2="896" y1="330.5" y2="330.5" stroke="#e2e8f0"/><text x="60" y="334.5" text-anchor="end" class="axis">-12%</text><line x1="70" x2="896" y1="251.0" y2="251.0" stroke="#e2e8f0"/><text x="60" y="255.0" text-anchor="end" class="axis">2%</text><line x1="70" x2="896" y1="171.5" y2="171.5" stroke="#e2e8f0"/><text x="60" y="175.5" text-anchor="end" class="axis">17%</text><line x1="70" x2="896" y1="92.0" y2="92.0" stroke="#e2e8f0"/><text x="60" y="96.0" text-anchor="end" class="axis">31%</text>
<line x1="70" x2="896" y1="262.6" y2="262.6" stroke="#334155"/>
<line x1="70" x2="70" y1="92" y2="410" stroke="#94a3b8"/>
<rect x="93.6" y="244.2" width="35.4" height="18.4" fill="#2563eb"/><rect x="129.0" y="225.6" width="35.4" height="37.0" fill="#f97316"/><text x="129.0" y="446" text-anchor="middle" class="axis">2019</text><rect x="211.6" y="176.5" width="35.4" height="86.1" fill="#2563eb"/><rect x="247.0" y="122.8" width="35.4" height="139.8" fill="#f97316"/><text x="247.0" y="446" text-anchor="middle" class="axis">2020</text><rect x="329.6" y="240.0" width="35.4" height="22.6" fill="#2563eb"/><rect x="365.0" y="262.6" width="35.4" height="34.1" fill="#f97316"/><text x="365.0" y="446" text-anchor="middle" class="axis">2021</text><rect x="447.6" y="261.0" width="35.4" height="1.6" fill="#2563eb"/><rect x="483.0" y="262.6" width="35.4" height="116.6" fill="#f97316"/><text x="483.0" y="446" text-anchor="middle" class="axis">2022</text><rect x="565.6" y="229.1" width="35.4" height="33.5" fill="#2563eb"/><rect x="601.0" y="262.6" width="35.4" height="64.4" fill="#f97316"/><text x="601.0" y="446" text-anchor="middle" class="axis">2023</text><rect x="683.6" y="226.6" width="35.4" height="36.0" fill="#2563eb"/><rect x="719.0" y="173.8" width="35.4" height="88.8" fill="#f97316"/><text x="719.0" y="446" text-anchor="middle" class="axis">2024</text><rect x="801.6" y="143.2" width="35.4" height="119.4" fill="#2563eb"/><rect x="837.0" y="146.4" width="35.4" height="116.2" fill="#f97316"/><text x="837.0" y="446" text-anchor="middle" class="axis">2025</text>
</svg>