<svg xmlns="http://www.w3.org/2000/svg" width="920" height="470" viewBox="0 0 920 470">
<style>.title{font:700 22px -apple-system,BlinkMacSystemFont,"PingFang SC",sans-serif;fill:#172033}.axis{font:12px -apple-system,BlinkMacSystemFont,"PingFang SC",sans-serif;fill:#64748b}.legend{font:13px -apple-system,BlinkMacSystemFont,"PingFang SC",sans-serif;fill:#334155}</style>
<rect width="100%" height="100%" fill="#ffffff"/>
<text x="70" y="30" class="title">净值曲线对比</text>
<text x="18" y="253.0" transform="rotate(-90 18 253.0)" class="axis">归一化净值</text>
<rect x="70" y="54" width="12" height="12" fill="#2563eb"/><text x="88" y="65" class="legend">V2.9 最终组合</text><rect x="240" y="54" width="12" height="12" fill="#10b981"/><text x="258" y="65" class="legend">风险策略</text><rect x="410" y="54" width="12" height="12" fill="#f97316"/><text x="428" y="65" class="legend">沪深300基准</text>
<line x1="70" x2="896" y1="414.0" y2="414.0" stroke="#e2e8f0"/><text x="60" y="418.0" text-anchor="end" class="axis">0.75</text><line x1="70" x2="896" y1="333.5" y2="333.5" stroke="#e2e8f0"/><text x="60" y="337.5" text-anchor="end" class="axis">1.02</text><line x1="70" x2="896" y1="253.0" y2="253.0" stroke="#e2e8f0"/><text x="60" y="257.0" text-anchor="end" class="axis">1.29</text><line x1="70" x2="896" y1="172.5" y2="172.5" stroke="#e2e8f0"/><text x="60" y="176.5" text-anchor="end" class="axis">1.56</text><line x1="70" x2="896" y1="92.0" y2="92.0" stroke="#e2e8f0"/><text x="60" y="96.0" text-anchor="end" class="axis">1.83</text><text x="70.0" y="448" text-anchor="middle" class="axis">2019</text><text x="100.8" y="448" text-anchor="middle" class="axis">2020</text><text x="233.7" y="448" text-anchor="middle" class="axis">2021</text><text x="366.1" y="448" text-anchor="middle" class="axis">2022</text><text x="498.6" y="448" text-anchor="middle" class="axis">2023</text><text x="631.1" y="448" text-anchor="middle" class="axis">2024</text><text x="763.9" y="448" text-anchor="middle" class="axis">2025</text>
<line x1="70" x2="896" y1="414" y2="414" stroke="#94a3b8"/>
<line x1="70" x2="70" y1="92" y2="414" stroke="#94a3b8"/>
<polyline points="70.0,339.0 70.4,338.1 70.7,337.4 71.1,336.6 72.2,335.9 72.5,336.5 72.9,336.7 73.3,336.4 73.6,338.3 74.7,338.4 75.1,337.8 75.4,338.5 75.8,338.3 76.2,337.1 77.3,335.9 77.6,337.0 78.0,338.0 78.3,338.2 78.7,336.3 79.8,335.6 80.2,334.9 80.5,336.9 80.9,336.1 81.3,337.7 82.3,340.1 82.7,340.3 83.1,339.5 83.4,338.8 83.8,339.7 84.9,338.6 85.2,336.4 85.6,337.2 86.0,338.1 86.3,339.4 87.4,339.0 87.8,338.5 88.1,338.5 88.5,338.6 88.9,339.1 90.0,338.5 90.3,338.4 90.7,337.9 91.0,337.3 91.4,337.1 92.5,337.1 92.9,337.1 93.2,337.1 93.6,336.7 94.0,335.7 95.0,334.1 95.4,332.4 95.8,332.9 96.1,333.0 96.5,332.8 97.6,334.0 97.9,332.8 98.3,332.4 98.7,331.4 99.0,331.1 100.1,329.7 100.5,329.0 101.2,327.2 101.6,326.2 102.7,324.7 103.0,323.2 103.4,324.9 103.8,324.6 104.1,323.9 105.2,322.4 105.6,323.3 105.9,323.5 106.3,323.6 106.7,323.3 107.7,322.7 108.1,324.8 108.5,324.4 108.8,327.3 112.8,336.4 113.2,333.8 113.6,331.9 113.9,330.3 114.3,329.8 115.4,328.7 115.7,326.7 116.1,325.3 116.5,322.0 116.8,324.1 117.9,323.5 118.3,325.3 118.6,325.1 119.0,324.0 119.4,324.1 120.4,325.3 120.8,325.5 121.2,325.7 121.5,326.1 121.9,330.4 123.0,328.1 123.3,327.9 123.7,326.0 124.1,324.7 124.4,325.0 125.5,329.4 125.9,327.7 126.3,328.9 126.6,331.5 127.0,334.0 128.1,339.6 128.4,342.0 128.8,342.5 129.2,342.7 129.5,340.6 130.6,344.0 131.0,338.4 131.3,334.9 131.7,336.1 132.1,335.7 133.1,337.4 133.5,337.4 133.9,338.8 134.2,337.2 134.6,337.5 136.1,333.7 136.4,334.7 136.8,334.2 137.1,334.7 138.2,335.1 138.6,333.1 139.0,332.5 139.3,331.7 139.7,330.8 140.8,330.9 141.1,331.2 141.5,330.2 141.9,328.6 142.2,328.7 143.3,327.0 143.7,326.1 144.0,324.0 144.4,323.1 146.6,323.1 146.9,322.7 147.3,320.5 148.4,321.3 148.8,321.4 149.1,319.4 149.5,320.3 149.8,319.9 150.9,316.3 151.3,315.9 151.7,316.4 152.0,317.1 152.4,321.6 153.5,319.9 153.8,317.6 154.2,319.1 154.6,318.0 154.9,317.1 156.0,313.3 156.4,313.8 156.7,314.3 157.1,313.9 157.5,313.5 158.6,313.7 158.9,312.8 159.3,312.1 159.6,312.9 160.0,313.1 161.1,314.8 161.5,312.2 161.8,312.0 162.2,311.7 162.5,309.9 163.6,309.3 164.0,307.8 164.4,306.7 166.2,307.5 166.5,305.4 166.9,301.1 167.3,298.0 167.6,296.1 168.7,285.8 169.1,285.2 169.4,282.7 169.8,278.7 170.2,280.2 171.3,272.7 171.6,275.2 172.0,277.6 172.3,288.3 172.7,287.9 173.8,283.8 174.2,281.8 174.5,279.7 174.9,279.9 175.2,285.5 176.3,283.8 176.7,282.6 177.1,279.7 177.4,280.4 177.8,278.1 178.9,275.7 179.2,275.2 179.6,273.2 180.0,272.8 180.3,272.7 181.4,272.8 181.8,275.4 182.1,280.7 182.5,278.7 182.9,277.0 184.0,274.5 184.3,272.7 184.7,274.3 185.0,276.7 185.4,275.6 186.5,274.4 186.9,273.0 187.2,275.0 187.6,272.3 187.9,270.1 189.0,268.6 189.4,268.0 189.8,268.2 190.1,268.8 190.5,273.6 191.6,278.9 191.9,277.2 192.3,281.4 192.7,280.8 193.0,280.8 194.1,279.5 194.5,277.6 194.8,278.1 195.2,280.0 195.6,276.0 196.7,277.7 197.0,281.4 197.4,281.8 197.7,285.7 198.1,285.5 199.2,285.2 199.6,283.7 199.9,284.2 203.2,281.2 204.3,276.6 204.6,276.2 205.0,277.4 205.4,279.0 205.7,279.2 206.8,279.9 207.2,279.4 207.5,279.8 207.9,280.7 208.3,282.9 209.4,284.3 209.7,283.9 210.1,283.6 210.4,284.1 210.8,287.2 211.9,285.8 212.3,282.2 212.6,279.5 213.0,275.9 213.4,277.5 214.4,273.9 214.8,276.6 215.2,278.3 215.5,276.9 215.9,279.6 217.0,276.0 217.3,278.0 217.7,279.2 218.1,279.0 218.4,277.2 219.5,275.4 219.9,277.5 220.2,281.2 220.6,280.5 221.0,279.7 222.1,282.2 222.4,279.9 222.8,278.7 223.2,278.6 223.5,278.7 224.6,280.9 225.0,280.3 225.3,282.3 225.7,283.8 226.1,285.0 227.1,284.6 227.5,283.9 227.9,283.0 228.2,281.5 228.6,280.8 229.7,278.8 230.0,282.3 230.4,281.7 230.8,282.4 231.1,280.8 232.2,280.8 232.6,281.3 232.9,280.4 233.3,278.5 234.8,277.0 235.1,274.8 235.5,273.9 235.9,272.4 236.2,273.4 237.3,278.7 237.7,275.2 238.0,276.5 238.4,279.7 238.8,280.1 239.8,279.2 240.2,279.7 240.6,279.0 240.9,276.0 241.3,276.9 242.4,276.6 242.7,278.3 243.1,277.9 243.5,282.2 243.8,282.9 244.9,281.0 245.3,280.2 245.7,280.8 246.0,282.1 246.4,282.5 247.5,281.0 247.8,278.9 248.2,277.5 251.1,278.9 251.5,278.2 252.5,278.7 252.9,278.9 253.3,280.7 253.6,280.1 254.0,284.2 255.1,282.6 255.5,284.4 255.8,282.3 256.2,286.0 256.5,287.8 257.6,289.5 258.0,291.9 258.4,290.9 258.7,287.2 259.1,286.9 260.2,287.3 260.5,286.0 260.9,285.6 261.3,284.1 261.6,287.5 262.7,286.1 263.1,286.8 263.4,288.3 263.8,288.6 264.2,286.9 265.2,286.2 265.6,286.6 266.0,287.8 266.3,284.6 266.7,281.6 268.2,282.3 268.5,283.3 268.9,281.6 269.2,283.0 270.3,285.0 270.7,285.8 271.1,283.3 271.4,284.1 271.8,281.2 272.9,279.0 273.2,280.2 273.6,278.7 274.0,278.3 274.3,278.3 275.4,279.6 275.8,278.7 276.1,277.6 276.5,276.5 276.9,278.1 279.0,279.2 279.4,279.8 280.5,278.1 280.9,279.2 281.2,277.7 281.6,279.7 281.9,276.8 283.0,274.4 283.4,273.7 283.8,274.5 284.1,275.1 284.5,274.9 285.6,274.4 285.9,271.2 286.3,270.2 286.7,270.0 287.0,271.0 288.1,269.6 288.5,268.5 288.8,271.1 289.2,271.6 289.6,271.6 290.7,270.3 291.0,272.4 291.4,272.4 291.7,271.4 292.1,271.6 293.6,273.6 293.9,275.0 294.3,276.0 294.6,275.7 295.7,276.0 296.1,274.8 296.5,273.1 296.8,273.5 297.2,272.5 298.3,272.8 298.6,273.5 299.0,273.1 299.4,272.5 299.7,275.0 300.8,274.1 301.2,273.2 301.5,272.4 301.9,273.5 302.3,272.9 303.4,271.8 303.7,270.7 304.1,271.0 304.4,269.8 304.8,270.5 305.9,271.4 306.3,271.0 306.6,270.3 307.0,270.0 307.3,270.0 308.4,272.2 308.8,276.0 309.2,276.3 309.5,274.6 309.9,275.2 311.0,274.0 311.3,274.7 311.7,273.3 312.1,273.5 312.4,273.1 313.5,274.4 313.9,274.3 314.2,273.2 314.6,272.1 315.0,271.7 316.1,270.9 316.4,271.6 316.8,271.4 317.1,272.8 317.5,272.3 318.6,270.7 319.0,269.0 319.3,268.8 319.7,268.8 320.1,267.5 321.1,266.4 321.5,264.3 321.9,265.2 322.2,263.8 322.6,264.7 323.7,263.5 324.0,262.1 324.4,262.7 324.8,262.2 325.1,261.8 326.2,261.9 326.6,262.4 326.9,261.9 327.3,264.0 327.7,265.2 329.5,263.8 329.8,264.2 330.2,265.8 331.3,266.7 331.7,267.1 332.0,268.6 332.4,268.3 335.3,267.7 336.4,268.4 336.7,268.7 337.1,269.0 337.5,267.9 337.8,267.5 338.9,268.0 339.3,267.3 339.6,267.9 340.0,267.2 340.4,289.9 341.5,267.7 341.8,267.2 342.2,268.4 342.6,268.4 342.9,268.7 344.0,268.3 344.4,268.2 344.7,268.8 345.1,268.0 345.5,268.1 346.5,266.8 346.9,265.4 347.3,266.1 347.6,264.6 348.0,263.5 349.1,264.6 349.4,265.6 349.8,265.2 350.2,264.2 350.5,263.4 351.6,263.5 352.0,265.1 352.3,265.6 352.7,265.7 353.1,266.0 354.2,266.0 354.5,265.5 354.9,265.8 355.3,266.5 355.6,265.0 356.7,265.3 357.1,265.1 357.4,262.9 357.8,262.5 358.2,263.1 359.2,262.3 359.6,262.7 360.0,263.9 360.3,262.6 360.7,263.3 361.8,264.2 362.1,263.9 362.5,263.8 362.9,261.8 363.2,261.9 364.3,262.1 364.7,261.2 365.1,262.9 365.4,263.2 365.8,262.1 367.2,262.1 367.6,263.4 368.0,264.6 368.3,265.1 369.4,265.1 369.8,265.4 370.1,264.6 370.5,286.7 370.9,265.9 371.9,265.9 372.3,265.9 372.7,266.1 373.0,265.4 373.4,266.5 374.5,266.9 374.9,268.5 375.2,268.3 375.6,270.9 375.9,271.1 379.6,268.9 379.9,266.4 380.3,265.8 380.7,264.5 381.0,264.5 382.1,265.2 382.5,265.2 382.8,265.4 383.2,265.1 383.6,262.7 384.6,262.8 385.0,262.5 385.4,263.5 385.7,263.3 386.1,264.5 387.2,264.8 387.6,264.0 387.9,262.8 388.3,262.7 388.6,263.4 389.7,262.4 390.1,262.7 390.5,262.7 390.8,264.6 391.2,264.3 392.3,265.8 392.6,271.2 393.0,270.6 393.4,268.8 393.7,266.8 394.8,267.3 395.2,265.8 395.5,266.3 395.9,265.6 396.3,265.1 397.4,264.1 397.7,264.9 398.1,264.4 398.4,263.3 398.8,261.8 400.6,259.9 401.0,262.3 401.3,260.2 402.4,261.3 402.8,261.5 403.2,261.3 403.5,260.1 403.9,260.2 405.0,260.9 405.3,260.7 405.7,263.2 406.1,263.5 406.4,262.1 407.5,265.4 407.9,266.0 408.2,265.6 408.6,264.3 409.0,262.1 411.1,262.4 411.5,264.3 412.6,263.7 413.0,263.6 413.3,263.9 413.7,263.3 414.0,262.8 415.1,262.9 415.5,263.0 415.9,264.1 416.2,263.4 416.6,262.8 417.7,263.2 418.0,264.3 418.4,263.1 418.8,262.1 419.1,261.5 420.2,262.0 420.6,262.3 420.9,262.7 421.3,262.7 422.8,263.0 423.1,263.2 423.5,262.4 423.8,262.0 424.2,262.1 425.3,262.1 425.7,262.5 426.0,262.4 426.4,263.3 426.7,263.0 427.8,263.5 428.2,263.4 428.6,264.3 428.9,264.0 429.3,264.8 430.4,263.4 430.7,263.5 431.1,263.2 431.5,263.0 431.8,263.7 432.9,263.2 433.3,263.3 433.6,267.4 434.0,268.2 434.4,268.2 435.5,269.3 435.8,269.0 436.2,269.4 436.5,270.6 436.9,272.0 438.0,270.4 438.4,270.5 438.7,270.1 439.1,271.8 439.4,271.0 440.5,270.7 440.9,269.8 441.3,270.2 441.6,269.3 442.0,268.9 443.1,269.0 443.4,269.7 443.8,270.9 444.2,270.4 444.5,269.5 445.6,269.2 446.0,268.6 446.3,268.7 446.7,268.3 447.1,267.4 448.2,267.3 448.5,267.2 448.9,267.4 449.2,268.2 449.6,267.5 450.7,267.4 451.1,267.0 451.4,267.1 451.8,265.6 452.2,265.5 453.2,265.7 453.6,265.2 454.0,266.1 454.3,266.1 454.7,266.1 455.8,264.1 456.1,262.8 456.5,263.1 456.9,262.4 457.2,261.6 458.7,262.0 459.0,263.2 459.4,262.8 459.8,265.5 460.9,265.3 461.2,265.4 461.6,264.6 462.0,265.0 462.3,265.4 463.4,267.2 463.8,266.4 464.1,266.8 464.5,266.9 464.9,266.5 468.5,265.4 468.8,265.8 469.2,265.0 469.6,264.8 469.9,264.8 471.0,265.6 471.4,265.5 471.7,266.1 472.1,267.0 472.5,266.8 473.6,267.3 473.9,267.7 474.3,268.3 474.7,268.2 475.0,269.3 476.1,271.2 476.5,270.4 476.8,268.7 477.2,269.8 477.6,268.4 478.6,266.9 479.0,267.0 479.4,264.9 479.7,265.3 480.1,261.5 481.2,263.1 481.5,262.0 481.9,262.0 482.3,262.2 482.6,262.7 483.7,263.9 484.1,262.6 484.5,261.5 484.8,260.9 485.2,257.8 486.3,259.0 486.6,255.9 487.0,256.0 487.4,256.6 487.7,257.4 488.8,257.1 489.2,258.1 489.5,258.8 489.9,258.1 490.3,257.4 491.3,259.1 491.7,258.9 492.1,258.7 492.4,259.3 492.8,259.5 493.9,260.2 494.3,261.8 494.6,261.3 495.0,261.8 495.3,262.7 496.4,262.2 496.8,261.4 497.2,261.4 497.5,261.7 497.9,261.0 499.3,260.3 499.7,259.2 500.1,258.9 500.4,260.1 501.5,258.9 501.9,259.3 502.2,259.6 502.6,259.7 503.0,258.5 504.0,257.3 504.4,257.5 504.8,256.6 505.1,254.9 505.5,253.3 509.1,253.5 509.5,254.2 509.9,252.5 510.2,250.9 510.6,252.2 511.7,254.2 512.0,253.6 512.4,254.1 512.8,252.6 513.1,253.6 514.2,252.4 514.6,252.0 514.9,252.0 515.3,252.3 515.7,254.8 516.8,251.6 517.1,251.6 517.5,252.5 517.8,253.0 518.2,253.0 519.3,253.9 519.7,253.1 520.0,252.2 520.4,252.6 520.7,251.9 521.8,250.6 522.2,252.4 522.6,253.8 522.9,253.8 523.3,256.1 524.4,254.1 524.7,254.5 525.1,252.8 525.5,253.3 525.8,250.7 526.9,249.4 527.3,248.9 527.6,248.9 528.0,248.2 528.4,247.7 529.5,248.5 529.8,249.2 530.2,249.3 530.5,247.9 530.9,246.4 532.0,245.8 532.4,244.1 533.1,245.3 533.4,243.3 534.5,247.5 534.9,244.9 535.3,241.7 535.6,243.7 536.0,243.4 537.1,243.7 537.4,243.6 537.8,244.3 538.2,242.6 538.5,246.8 539.6,246.9 540.0,246.1 540.3,246.2 540.7,246.5 541.1,244.3 543.2,241.4 543.6,242.3 544.7,239.6 545.1,241.7 545.4,243.8 545.8,242.8 546.1,246.3 547.2,244.8 547.6,246.0 548.0,246.5 548.3,245.1 548.7,245.4 549.8,245.3 550.1,246.9 550.5,248.7 550.9,248.7 551.2,247.9 552.3,246.2 552.7,245.8 553.0,245.6 553.4,245.3 553.8,244.6 554.9,244.6 555.2,246.0 555.6,245.0 555.9,246.5 556.3,244.1 557.4,243.4 557.8,240.9 558.1,241.2 558.5,241.8 558.8,239.0 559.9,238.1 560.3,237.1 560.7,239.8 562.5,243.2 562.8,242.9 563.2,243.2 563.6,242.2 563.9,241.4 565.0,240.1 565.4,240.0 565.7,240.6 566.1,240.6 566.5,241.1 567.6,241.4 567.9,241.1 568.3,241.0 568.6,239.4 569.0,239.3 570.1,239.1 570.5,238.5 570.8,236.6 571.2,237.4 571.6,238.4 572.6,238.4 573.0,238.3 573.4,237.9 573.7,237.3 574.1,237.8 575.2,236.9 575.5,236.5 575.9,237.1 576.3,236.2 576.6,235.6 577.7,237.2 578.1,237.8 578.4,238.5 578.8,238.4 579.2,240.9 580.3,241.9 580.6,240.6 581.0,241.5 581.4,241.5 581.7,243.6 582.8,245.1 583.2,244.0 583.5,244.6 583.9,243.5 584.3,245.4 585.3,243.8 585.7,242.6 586.1,242.1 586.4,242.1 586.8,241.8 587.9,240.7 588.2,241.0 588.6,241.2 589.0,241.5 589.3,241.7 590.4,240.7 590.8,240.6 591.1,240.7 591.5,239.6 591.9,240.2 593.0,241.1 593.3,240.3 593.7,239.4 594.1,240.5 594.4,241.0 595.5,240.5 595.9,240.9 596.2,242.3 596.6,243.6 600.6,243.9 600.9,244.9 601.3,244.6 601.7,243.3 602.0,243.2 603.1,242.3 603.5,241.6 603.9,241.1 604.2,241.9 604.6,241.2 605.7,242.6 606.0,242.2 606.4,242.2 606.8,242.3 607.1,241.9 608.2,242.3 608.6,242.1 608.9,241.9 609.3,241.1 609.7,241.1 610.7,241.3 611.1,241.5 611.5,241.6 611.8,241.8 612.2,241.7 613.3,241.2 613.7,240.7 614.0,239.6 614.4,240.1 614.7,239.9 615.8,241.0 616.2,240.6 616.6,241.3 616.9,241.0 617.3,240.8 618.4,240.5 618.7,240.2 619.1,239.9 619.5,239.9 619.8,239.6 620.9,238.7 621.3,240.6 621.6,240.3 622.0,240.6 622.4,240.1 623.4,240.1 623.8,239.9 624.2,239.9 624.5,238.4 624.9,239.0 626.0,239.1 626.4,238.7 626.7,238.3 627.1,238.8 627.4,238.2 628.5,238.1 628.9,237.7 629.3,237.1 629.6,237.2 630.0,237.3 631.4,236.6 631.8,236.8 632.2,236.7 632.5,236.7 633.6,237.3 634.0,236.2 634.3,236.7 634.7,236.6 635.1,236.3 636.2,235.4 636.5,235.4 636.9,236.7 637.2,237.1 637.6,236.2 638.7,236.4 639.1,236.3 639.4,235.4 639.8,234.8 640.1,234.1 641.2,233.7 641.6,233.2 642.0,234.0 642.3,234.5 642.7,233.4 643.8,233.4 644.1,232.8 644.5,232.7 644.9,231.8 648.9,230.8 649.2,230.5 649.6,230.0 649.9,228.9 650.3,228.5 651.4,230.1 651.8,229.9 652.1,230.2 652.5,230.0 652.8,229.1 653.9,227.2 654.3,225.8 654.7,225.6 655.0,225.0 655.4,223.3 656.5,223.7 656.8,225.3 657.2,225.3 657.6,225.4 657.9,224.7 659.0,224.7 659.4,224.8 659.7,224.4 660.1,222.0 660.5,222.8 661.6,223.4 661.9,223.3 662.3,223.1 662.6,222.4 663.0,220.1 664.1,219.5 664.5,219.2 664.8,218.1 666.6,215.8 667.0,215.9 667.4,215.4 667.7,215.9 668.1,213.1 669.2,213.9 669.5,214.4 669.9,213.5 670.3,213.8 670.6,213.9 671.7,216.7 672.1,219.4 672.4,217.8 672.8,218.0 673.2,217.3 674.3,217.8 674.6,217.7 676.8,217.8 677.2,217.3 677.5,218.4 677.9,217.3 678.2,215.6 679.3,216.0 679.7,216.3 680.1,216.5 680.4,214.5 680.8,213.0 681.9,209.7 682.2,211.1 682.6,210.9 683.0,214.4 683.3,217.3 684.4,215.4 684.8,216.0 685.1,215.4 685.5,217.1 685.9,216.9 687.0,218.1 687.3,216.1 687.7,217.5 688.0,215.7 688.4,215.8 689.9,219.3 690.2,218.0 690.6,218.0 691.0,217.4 692.0,218.0 692.4,216.9 692.8,216.9 693.1,217.0 693.5,217.1 694.6,220.4 694.9,221.0 695.3,219.7 695.7,221.2 696.0,219.0 697.1,217.6 697.5,217.3 697.8,217.0 698.2,216.5 698.6,216.6 699.7,215.9 700.0,215.1 700.4,215.8 700.8,215.4 701.1,216.1 702.2,214.1 702.6,213.5 702.9,212.8 703.3,213.4 703.7,216.8 704.7,217.9 705.1,217.9 705.5,217.5 705.8,221.3 706.2,221.5 707.3,220.0 707.6,220.6 708.0,219.3 708.4,217.6 708.7,220.0 709.8,225.5 710.2,225.1 710.5,224.5 710.9,225.1 711.3,223.3 712.4,222.1 712.7,221.1 713.1,220.5 713.5,219.9 713.8,218.3 714.9,217.5 715.3,217.2 715.6,217.2 716.0,217.3 716.4,218.0 717.4,217.3 717.8,217.6 718.2,218.0 718.5,219.8 718.9,219.9 720.0,219.9 720.3,220.2 720.7,222.9 721.1,222.3 721.4,222.1 722.5,223.6 722.9,222.9 723.3,223.1 723.6,221.9 724.0,220.4 725.8,220.1 726.2,219.7 726.5,218.8 727.6,217.4 728.0,216.0 728.3,215.0 728.7,213.1 729.1,214.7 730.1,212.0 733.1,211.5 733.4,222.8 733.8,220.3 734.1,221.9 735.2,218.9 735.6,220.3 736.0,219.2 736.3,219.5 736.7,216.6 737.8,215.4 738.1,214.9 738.5,213.9 738.9,216.1 739.2,215.2 740.3,214.0 740.7,214.3 741.0,213.2 741.4,214.2 741.8,215.3 742.8,213.2 743.2,207.5 743.6,206.2 743.9,200.6 744.3,203.1 745.4,202.5 745.8,206.0 746.1,206.3 746.5,211.8 746.8,216.3 747.9,216.1 748.3,213.5 748.7,212.4 749.0,211.7 749.4,214.7 750.5,215.9 750.8,217.2 751.2,214.2 751.6,215.6 751.9,213.5 753.0,212.9 753.4,211.1 753.7,211.3 754.1,211.1 754.5,210.2 755.6,209.3 755.9,208.7 756.3,207.8 756.6,206.0 757.0,208.4 758.1,208.9 758.5,209.2 758.8,208.5 759.2,210.3 759.5,211.2 760.6,209.5 761.0,209.0 761.4,208.4 761.7,208.0 762.1,208.1 763.2,208.5 763.5,210.3 764.3,211.8 764.6,212.7 765.7,212.6 766.1,212.0 766.4,212.0 766.8,212.1 767.2,212.8 768.3,213.8 768.6,211.9 769.0,211.9 769.3,210.6 769.7,210.2 770.8,209.7 771.2,209.8 771.5,209.7 771.9,209.4 772.2,208.2 773.3,209.1 776.6,206.5 777.0,203.7 777.3,201.0 778.4,198.0 778.8,197.2 779.1,195.2 779.5,195.0 779.9,191.9 781.0,193.6 781.3,195.9 781.7,193.3 782.0,194.0 782.4,191.4 783.5,192.6 783.9,196.1 784.2,195.5 784.6,196.0 784.9,203.5 786.0,202.6 786.4,201.3 786.8,199.4 787.1,197.5 787.5,199.5 788.6,199.8 788.9,201.8 789.3,201.5 789.7,202.3 790.0,198.0 791.1,197.8 791.5,196.5 791.8,195.7 792.2,195.6 792.6,197.8 793.7,196.6 794.0,196.1 794.4,196.2 794.7,196.3 795.1,195.6 796.2,197.1 796.6,195.4 796.9,195.5 797.3,196.1 798.7,215.9 799.1,212.2 799.5,210.4 799.8,202.9 800.2,201.7 801.3,199.6 801.6,199.8 802.0,198.2 802.4,197.3 802.7,197.0 803.8,195.1 804.2,191.6 804.5,196.5 804.9,195.7 805.3,194.9 806.4,195.7 806.7,195.3 807.1,196.4 809.3,193.1 809.6,191.5 810.0,191.5 810.4,192.5 811.4,192.2 811.8,192.1 812.2,190.3 812.5,194.3 812.9,193.6 814.0,193.4 814.3,192.3 814.7,189.4 815.1,189.8 815.4,191.1 816.5,191.5 816.9,192.3 817.2,191.6 817.6,191.0 818.0,191.1 819.4,189.2 819.8,187.7 820.2,188.1 820.5,188.2 821.6,188.1 822.0,188.6 822.3,187.2 822.7,185.8 823.1,186.9 824.1,186.1 824.5,187.6 824.9,187.1 825.2,188.8 825.6,188.8 826.7,187.4 827.0,186.0 827.4,183.3 827.8,182.8 828.1,185.0 829.2,184.3 829.6,182.3 829.9,182.9 830.3,181.5 830.7,181.0 831.8,181.5 832.1,179.9 832.5,181.1 832.9,179.2 833.2,179.2 834.3,178.4 834.7,178.5 835.0,179.7 835.4,177.9 835.8,176.4 836.8,174.8 837.2,173.3 837.6,172.9 837.9,173.2 838.3,173.9 839.4,173.0 839.7,172.7 840.1,173.2 840.5,175.2 840.8,176.9 841.9,175.4 842.3,172.9 842.7,172.3 843.0,171.9 843.4,171.8 844.5,171.0 844.8,170.1 845.2,166.1 845.6,167.6 845.9,165.8 847.0,163.5 847.4,164.3 847.7,162.6 848.1,161.7 848.5,158.6 849.5,152.5 849.9,153.0 850.3,155.3 850.6,150.5 851.0,148.4 852.1,143.4 852.4,146.1 852.8,147.2 853.2,153.0 853.5,147.4 854.6,146.5 855.0,146.4 855.4,145.8 855.7,141.0 856.1,141.3 857.2,141.9 857.5,140.1 857.9,139.8 858.3,142.6 858.6,141.6 859.7,138.2 860.1,136.1 860.4,134.1 860.8,134.4 861.2,136.3 862.2,132.2 862.6,130.6 865.9,122.5 866.2,128.4 867.3,126.6 867.7,128.4 868.1,123.2 868.4,122.2 868.8,122.3 869.9,123.9 870.2,118.8 870.6,123.5 871.0,124.1 871.3,122.8 872.4,120.2 872.8,124.5 873.1,120.7 873.5,122.1 873.9,122.5 875.0,121.9 875.3,125.6 875.7,125.7 876.0,121.9 876.4,121.9 877.5,119.1 877.9,118.1 878.2,118.7 878.6,114.6 878.9,119.4 880.0,123.4 880.4,128.5 880.8,126.7 881.1,125.6 881.5,132.4 882.6,131.8 882.9,127.4 883.3,126.3 883.7,126.5 884.0,124.5 885.1,122.1 885.5,123.5 885.8,124.0 886.2,124.3 886.6,122.4 887.7,122.2 888.0,124.8 888.4,123.7 888.7,125.3 889.1,122.9 890.2,122.7 890.6,126.5 890.9,122.8 891.3,123.6 891.6,121.8 892.7,117.9 893.1,116.5 893.5,115.4 893.8,115.6 894.2,114.2 895.3,116.0 895.6,118.0 896.0,119.1" fill="none" stroke="#2563eb" stroke-width="2.4"/><polyline points="70.0,339.0 70.4,339.0 70.7,337.3 71.1,335.4 72.2,332.9 72.5,334.1 72.9,334.0 73.3,334.3 73.6,337.2 74.7,337.4 75.1,336.0 75.4,337.6 75.8,337.1 76.2,336.0 77.3,334.1 77.6,334.8 78.0,336.4 78.3,336.9 78.7,334.5 79.8,333.1 80.2,331.4 80.5,333.3 80.9,332.4 81.3,333.3 82.3,337.1 82.7,336.5 83.1,336.2 83.4,335.3 83.8,336.5 84.9,334.8 85.2,331.7 85.6,333.4 86.0,334.7 86.3,336.7 87.4,335.2 87.8,334.4 88.1,334.6 88.5,334.6 88.9,335.4 90.0,334.6 90.3,334.7 90.7,335.6 91.0,334.2 91.4,333.2 92.5,332.4 92.9,332.5 93.2,332.7 93.6,332.4 94.0,329.6 95.0,327.9 95.4,325.0 95.8,325.9 96.1,326.0 96.5,326.0 97.6,328.4 97.9,326.8 98.3,326.8 98.7,325.2 99.0,325.1 100.1,322.6 100.5,322.1 101.2,318.6 101.6,318.5 102.7,318.4 103.0,314.8 103.4,319.6 103.8,315.4 104.1,314.5 105.2,311.9 105.6,312.1 105.9,313.3 106.3,313.6 106.7,313.0 107.7,312.0 108.1,316.6 108.5,314.9 108.8,320.7 112.8,339.0 113.2,333.7 113.6,329.7 113.9,326.4 114.3,326.1 115.4,324.5 115.7,320.9 116.1,318.3 116.5,313.5 116.8,317.2 117.9,316.4 118.3,320.0 118.6,321.0 119.0,319.5 119.4,321.8 120.4,326.4 120.8,324.3 121.2,325.3 121.5,325.9 121.9,331.9 123.0,325.7 123.3,325.2 123.7,324.2 124.1,322.1 124.4,324.6 125.5,331.2 125.9,327.1 126.3,330.1 126.6,333.2 127.0,334.4 128.1,341.2 128.4,340.8 128.8,343.5 129.2,343.5 129.5,340.9 130.6,346.3 131.0,342.2 131.3,338.2 131.7,339.9 132.1,340.3 133.1,342.4 133.5,342.4 133.9,343.1 134.2,340.9 134.6,342.3 136.1,338.8 136.4,339.4 136.8,338.9 137.1,340.3 138.2,341.0 138.6,338.8 139.0,337.5 139.3,337.1 139.7,333.9 140.8,333.6 141.1,334.9 141.5,333.1 141.9,332.1 142.2,333.2 143.3,329.6 143.7,327.4 144.0,324.5 144.4,323.4 146.6,323.2 146.9,322.0 147.3,319.6 148.4,320.5 148.8,320.6 149.1,317.5 149.5,319.7 149.8,320.6 150.9,317.1 151.3,314.7 151.7,316.7 152.0,316.9 152.4,324.3 153.5,321.1 153.8,317.9 154.2,319.1 154.6,318.1 154.9,316.8 156.0,311.2 156.4,311.9 156.7,311.7 157.1,310.1 157.5,309.4 158.6,308.8 158.9,307.3 159.3,307.1 159.6,309.5 160.0,309.7 161.1,312.4 161.5,307.8 161.8,307.6 162.2,306.9 162.5,304.1 163.6,304.2 164.0,301.7 164.4,300.6 166.2,302.0 166.5,298.5 166.9,292.0 167.3,285.7 167.6,282.7 168.7,264.9 169.1,264.0 169.4,260.3 169.8,254.3 170.2,256.0 171.3,243.6 171.6,247.8 172.0,252.0 172.3,269.8 172.7,268.5 173.8,262.1 174.2,259.5 174.5,258.6 174.9,259.6 175.2,270.3 176.3,270.1 176.7,268.0 177.1,263.3 177.4,263.5 177.8,260.8 178.9,256.1 179.2,255.5 179.6,255.4 180.0,255.7 180.3,256.2 181.4,255.5 181.8,257.2 182.1,258.5 182.5,257.0 182.9,255.1 184.0,251.9 184.3,251.7 184.7,253.0 185.0,254.6 185.4,252.7 186.5,249.6 186.9,247.5 187.2,250.7 187.6,247.6 187.9,243.6 189.0,241.4 189.4,241.8 189.8,240.8 190.1,239.5 190.5,248.5 191.6,257.9 191.9,255.0 192.3,262.6 192.7,262.4 193.0,262.2 194.1,259.7 194.5,256.8 194.8,257.4 195.2,259.9 195.6,253.3 196.7,256.3 197.0,260.0 197.4,258.8 197.7,264.4 198.1,265.4 199.2,264.6 199.6,263.7 199.9,264.6 203.2,259.3 204.3,252.5 204.6,251.5 205.0,252.2 205.4,255.1 205.7,255.8 206.8,257.1 207.2,255.8 207.5,256.9 207.9,258.6 208.3,262.1 209.4,263.9 209.7,264.4 210.1,263.9 210.4,263.1 210.8,267.9 211.9,266.4 212.3,260.7 212.6,256.5 213.0,250.1 213.4,254.1 214.4,247.3 214.8,248.9 215.2,251.7 215.5,249.1 215.9,254.3 217.0,247.9 217.3,251.2 217.7,252.6 218.1,251.6 218.4,248.5 219.5,245.6 219.9,246.3 220.2,251.5 220.6,250.5 221.0,249.0 222.1,250.7 222.4,247.5 222.8,247.2 223.2,248.5 223.5,248.8 224.6,252.6 225.0,253.4 225.3,256.3 225.7,257.7 226.1,259.8 227.1,259.2 227.5,259.1 227.9,258.3 228.2,256.1 228.6,255.8 229.7,253.7 230.0,258.3 230.4,257.2 230.8,258.8 231.1,256.6 232.2,256.8 232.6,256.9 232.9,255.2 233.3,252.4 234.8,251.5 235.1,248.1 235.5,246.9 235.9,243.3 236.2,244.3 237.3,250.4 237.7,245.1 238.0,247.3 238.4,252.1 238.8,253.4 239.8,251.4 240.2,252.3 240.6,251.4 240.9,247.2 241.3,248.3 242.4,247.1 242.7,250.7 243.1,249.2 243.5,256.2 243.8,258.0 244.9,256.1 245.3,253.5 245.7,253.4 246.0,254.8 246.4,254.1 247.5,252.5 247.8,250.1 248.2,247.9 251.1,246.8 251.5,245.0 252.5,247.3 252.9,248.9 253.3,251.9 253.6,249.6 254.0,255.1 255.1,251.7 255.5,252.9 255.8,249.4 256.2,255.0 256.5,257.1 257.6,261.5 258.0,265.4 258.4,264.8 258.7,259.2 259.1,257.1 260.2,258.8 260.5,256.8 260.9,256.6 261.3,254.9 261.6,260.4 262.7,257.3 263.1,259.1 263.4,261.5 263.8,262.5 264.2,259.2 265.2,257.9 265.6,257.1 266.0,257.8 266.3,254.5 266.7,250.9 268.2,251.3 268.5,253.8 268.9,251.0 269.2,254.1 270.3,257.1 270.7,257.2 271.1,254.2 271.4,255.5 271.8,251.4 272.9,248.4 273.2,249.3 273.6,248.2 274.0,247.3 274.3,247.1 275.4,248.9 275.8,247.4 276.1,244.6 276.5,243.1 276.9,245.3 279.0,249.1 279.4,251.8 280.5,249.3 280.9,251.1 281.2,248.6 281.6,251.8 281.9,247.3 283.0,244.2 283.4,243.9 283.8,245.8 284.1,246.8 284.5,246.7 285.6,246.2 285.9,239.9 286.3,239.5 286.7,238.2 287.0,239.0 288.1,237.5 288.5,236.4 288.8,239.0 289.2,239.2 289.6,237.8 290.7,236.3 291.0,240.9 291.4,240.8 291.7,238.7 292.1,240.1 293.6,241.5 293.9,243.9 294.3,243.6 294.6,241.7 295.7,242.3 296.1,240.7 296.5,237.6 296.8,237.8 297.2,235.8 298.3,236.6 298.6,237.5 299.0,235.8 299.4,236.2 299.7,240.9 300.8,239.8 301.2,239.5 301.5,237.8 301.9,239.7 302.3,239.0 303.4,236.8 303.7,235.4 304.1,236.1 304.4,235.0 304.8,235.8 305.9,236.3 306.3,236.7 306.6,234.9 307.0,233.4 307.3,234.0 308.4,238.5 308.8,244.3 309.2,246.2 309.5,243.5 309.9,245.0 311.0,241.5 311.3,242.7 311.7,240.6 312.1,240.7 312.4,239.4 313.5,238.4 313.9,237.6 314.2,235.5 314.6,234.6 315.0,234.3 316.1,234.0 316.4,236.5 316.8,236.3 317.1,238.3 317.5,237.8 318.6,234.8 319.0,232.6 319.3,231.6 319.7,231.1 320.1,230.0 321.1,228.4 321.5,224.5 321.9,226.2 322.2,223.6 322.6,225.3 323.7,223.9 324.0,220.9 324.4,220.3 324.8,218.8 325.1,219.0 326.2,218.4 326.6,219.5 326.9,219.1 327.3,221.7 327.7,222.7 329.5,222.0 329.8,221.4 330.2,223.6 331.3,225.5 331.7,225.1 332.0,227.7 332.4,226.7 335.3,227.3 336.4,228.0 336.7,229.4 337.1,229.9 337.5,229.6 337.8,228.6 338.9,227.7 339.3,226.9 339.6,227.7 340.0,227.1 340.4,269.8 341.5,228.1 341.8,227.8 342.2,229.0 342.6,230.5 342.9,230.3 344.0,229.0 344.4,229.7 344.7,229.7 345.1,227.7 345.5,229.8 346.5,228.7 346.9,226.6 347.3,227.9 347.6,227.0 348.0,225.1 349.1,226.9 349.4,229.5 349.8,228.1 350.2,226.9 350.5,225.2 351.6,224.2 352.0,224.8 352.3,225.0 352.7,225.1 353.1,226.3 354.2,225.7 354.5,224.6 354.9,224.5 355.3,225.2 355.6,222.2 356.7,223.8 357.1,223.0 357.4,219.2 357.8,218.0 358.2,218.7 359.2,218.0 359.6,218.8 360.0,219.7 360.3,218.6 360.7,221.5 361.8,223.1 362.1,221.5 362.5,221.0 362.9,218.7 363.2,219.1 364.3,219.4 364.7,218.2 365.1,220.7 365.4,220.6 365.8,220.1 367.2,219.0 367.6,222.2 368.0,223.5 368.3,223.8 369.4,224.0 369.8,225.7 370.1,225.0 370.5,266.1 370.9,227.5 371.9,226.9 372.3,226.7 372.7,227.1 373.0,227.6 373.4,229.6 374.5,230.0 374.9,233.3 375.2,233.0 375.6,235.2 375.9,235.3 379.6,232.2 379.9,228.4 380.3,228.0 380.7,225.9 381.0,225.2 382.1,228.6 382.5,230.2 382.8,228.7 383.2,229.3 383.6,226.3 384.6,226.3 385.0,227.3 385.4,228.1 385.7,230.8 386.1,231.2 387.2,231.1 387.6,229.7 387.9,229.3 388.3,228.8 388.6,230.5 389.7,231.7 390.1,235.6 390.5,237.1 390.8,235.9 391.2,235.6 392.3,237.7 392.6,244.4 393.0,242.0 393.4,240.5 393.7,237.1 394.8,237.7 395.2,235.9 395.5,235.7 395.9,236.0 396.3,236.0 397.4,233.0 397.7,233.6 398.1,232.4 398.4,230.2 398.8,228.2 400.6,224.2 401.0,228.8 401.3,225.5 402.4,228.6 402.8,229.8 403.2,230.1 403.5,228.1 403.9,228.7 405.0,230.8 405.3,229.5 405.7,232.2 406.1,234.6 406.4,232.6 407.5,237.6 407.9,237.6 408.2,237.0 408.6,234.4 409.0,232.5 411.1,232.5 411.5,235.8 412.6,235.2 413.0,234.0 413.3,233.8 413.7,234.1 414.0,231.9 415.1,230.8 415.5,232.0 415.9,232.6 416.2,231.9 416.6,231.4 417.7,232.3 418.0,234.6 418.4,232.6 418.8,231.3 419.1,230.7 420.2,230.5 420.6,230.8 420.9,230.7 421.3,231.6 422.8,231.7 423.1,231.6 423.5,230.8 423.8,230.4 424.2,230.1 425.3,232.2 425.7,230.5 426.0,229.6 426.4,231.6 426.7,232.0 427.8,232.5 428.2,232.0 428.6,233.7 428.9,233.2 429.3,233.7 430.4,232.2 430.7,231.6 431.1,230.7 431.5,230.2 431.8,230.2 432.9,230.0 433.3,230.0 433.6,234.9 434.0,234.7 434.4,234.4 435.5,236.4 435.8,235.8 436.2,235.8 436.5,237.9 436.9,239.7 438.0,237.3 438.4,237.2 438.7,236.6 439.1,238.5 439.4,239.0 440.5,238.8 440.9,237.5 441.3,237.9 441.6,237.6 442.0,238.7 443.1,238.7 443.4,241.1 443.8,242.7 444.2,242.0 444.5,241.4 445.6,240.2 446.0,239.6 446.3,240.0 446.7,238.8 447.1,237.8 448.2,237.8 448.5,237.5 448.9,237.2 449.2,238.1 449.6,236.9 450.7,236.3 451.1,236.0 451.4,237.0 451.8,234.6 452.2,234.6 453.2,233.7 453.6,233.4 454.0,234.2 454.3,233.1 454.7,233.1 455.8,230.9 456.1,229.2 456.5,228.9 456.9,228.8 457.2,227.1 458.7,227.9 459.0,229.2 459.4,227.9 459.8,232.1 460.9,232.2 461.2,233.0 461.6,231.6 462.0,232.2 462.3,233.4 463.4,235.5 463.8,234.5 464.1,235.2 464.5,236.4 464.9,236.0 468.5,234.9 468.8,235.5 469.2,234.5 469.6,234.3 469.9,234.2 471.0,234.8 471.4,235.1 471.7,235.8 472.1,236.7 472.5,236.3 473.6,239.0 473.9,239.9 474.3,240.8 474.7,240.3 475.0,242.4 476.1,245.4 476.5,244.2 476.8,241.5 477.2,243.0 477.6,240.5 478.6,238.7 479.0,239.2 479.4,239.0 479.7,239.0 480.1,233.2 481.2,234.7 481.5,233.2 481.9,233.9 482.3,234.4 482.6,235.2 483.7,236.7 484.1,234.4 484.5,232.4 484.8,231.9 485.2,226.8 486.3,229.1 486.6,223.1 487.0,223.1 487.4,224.6 487.7,226.8 488.8,225.0 489.2,225.4 489.5,226.6 489.9,225.7 490.3,225.0 491.3,227.9 491.7,227.7 492.1,228.7 492.4,228.6 492.8,228.4 493.9,230.7 494.3,233.7 494.6,234.0 495.0,234.9 495.3,235.5 496.4,234.8 496.8,233.7 497.2,233.9 497.5,234.2 497.9,233.9 499.3,232.7 499.7,231.3 500.1,230.7 500.4,231.9 501.5,231.3 501.9,231.9 502.2,232.8 502.6,232.9 503.0,230.9 504.0,229.6 504.4,230.5 504.8,228.5 505.1,225.9 505.5,224.2 509.1,224.5 509.5,224.8 509.9,222.5 510.2,220.8 510.6,221.3 511.7,223.3 512.0,221.9 512.4,222.7 512.8,220.3 513.1,221.3 514.2,220.0 514.6,219.2 514.9,218.9 515.3,219.3 515.7,223.6 516.8,218.3 517.1,218.2 517.5,220.2 517.8,220.8 518.2,221.2 519.3,222.4 519.7,221.3 520.0,220.2 520.4,220.8 520.7,220.2 521.8,218.7 522.2,222.2 522.6,223.2 522.9,223.3 523.3,228.5 524.4,225.7 524.7,228.2 525.1,225.2 525.5,227.2 525.8,223.4 526.9,225.5 527.3,223.3 527.6,221.0 528.0,220.8 528.4,220.8 529.5,221.1 529.8,221.7 530.2,222.5 530.5,220.2 530.9,218.7 532.0,215.6 532.4,214.2 533.1,218.4 533.4,214.8 534.5,221.0 534.9,217.1 535.3,212.5 535.6,216.1 536.0,216.3 537.1,215.5 537.4,214.6 537.8,215.7 538.2,213.0 538.5,219.9 539.6,219.8 540.0,219.6 540.3,220.0 540.7,220.8 541.1,215.7 543.2,213.7 543.6,216.0 544.7,209.8 545.1,213.9 545.4,218.3 545.8,216.4 546.1,221.7 547.2,219.7 547.6,221.4 548.0,221.7 548.3,219.1 548.7,219.1 549.8,219.6 550.1,221.8 550.5,225.7 550.9,225.2 551.2,223.0 552.3,220.1 552.7,218.8 553.0,220.6 553.4,220.1 553.8,219.2 554.9,217.7 555.2,221.2 555.6,219.6 555.9,221.5 556.3,218.4 557.4,217.3 557.8,213.3 558.1,212.9 558.5,212.9 558.8,208.9 559.9,207.6 560.3,206.1 560.7,210.3 562.5,216.3 562.8,215.5 563.2,215.7 563.6,214.2 563.9,212.9 565.0,210.9 565.4,211.0 565.7,212.3 566.1,212.2 566.5,212.8 567.6,213.8 567.9,213.3 568.3,213.2 568.6,211.5 569.0,210.7 570.1,210.8 570.5,210.4 570.8,208.6 571.2,210.0 571.6,211.2 572.6,210.8 573.0,209.9 573.4,209.9 573.7,209.1 574.1,208.5 575.2,207.2 575.5,206.9 575.9,208.1 576.3,205.9 576.6,204.7 577.7,207.8 578.1,209.0 578.4,210.2 578.8,209.6 579.2,214.7 580.3,216.6 580.6,214.8 581.0,216.4 581.4,216.4 581.7,219.8 582.8,223.1 583.2,220.8 583.5,222.7 583.9,221.1 584.3,223.8 585.3,221.1 585.7,219.3 586.1,218.8 586.4,219.5 586.8,218.8 587.9,217.4 588.2,218.0 588.6,218.2 589.0,218.7 589.3,218.6 590.4,218.6 590.8,218.4 591.1,218.9 591.5,218.1 591.9,217.8 593.0,218.6 593.3,218.3 593.7,217.9 594.1,219.4 594.4,219.6 595.5,219.5 595.9,220.0 596.2,220.4 596.6,220.5 600.6,220.0 600.9,220.2 601.3,219.9 601.7,218.6 602.0,218.9 603.1,219.2 603.5,218.5 603.9,219.0 604.2,221.0 604.6,221.5 605.7,223.1 606.0,222.4 606.4,221.9 606.8,223.2 607.1,222.8 608.2,223.8 608.6,223.8 608.9,223.0 609.3,221.9 609.7,221.9 610.7,221.5 611.1,221.4 611.5,220.9 611.8,220.5 612.2,221.3 613.3,220.0 613.7,219.7 614.0,218.3 614.4,218.6 614.7,218.7 615.8,219.1 616.2,218.3 616.6,219.0 616.9,218.3 617.3,218.2 618.4,219.0 618.7,218.9 619.1,219.3 619.5,219.2 619.8,218.7 620.9,218.9 621.3,220.3 621.6,219.8 622.0,220.5 622.4,219.7 623.4,218.8 623.8,217.8 624.2,217.6 624.5,217.1 624.9,217.9 626.0,217.6 626.4,217.3 626.7,217.2 627.1,218.1 627.4,217.7 628.5,217.7 628.9,217.4 629.3,216.8 629.6,217.0 630.0,216.9 631.4,216.3 631.8,216.5 632.2,216.1 632.5,216.4 633.6,217.0 634.0,215.1 634.3,215.5 634.7,215.4 635.1,215.3 636.2,214.4 636.5,214.6 636.9,215.5 637.2,215.8 637.6,215.0 638.7,214.9 639.1,214.9 639.4,213.1 639.8,211.6 640.1,211.0 641.2,210.4 641.6,210.0 642.0,211.7 642.3,212.9 642.7,211.4 643.8,210.3 644.1,209.0 644.5,209.2 644.9,208.1 648.9,205.9 649.2,205.3 649.6,204.4 649.9,202.5 650.3,201.4 651.4,205.0 651.8,204.5 652.1,205.0 652.5,204.8 652.8,203.7 653.9,202.3 654.3,201.7 654.7,202.5 655.0,203.4 655.4,200.2 656.5,201.4 656.8,203.6 657.2,203.4 657.6,203.9 657.9,203.3 659.0,202.2 659.4,202.6 659.7,202.1 660.1,201.1 660.5,201.5 661.6,202.8 661.9,203.0 662.3,203.3 662.6,203.3 663.0,202.4 664.1,202.1 664.5,201.7 664.8,201.9 666.6,201.4 667.0,202.1 667.4,201.7 667.7,201.5 668.1,201.1 669.2,200.1 669.5,201.9 669.9,200.5 670.3,200.7 670.6,201.7 671.7,203.6 672.1,204.5 672.4,203.3 672.8,203.7 673.2,203.5 674.3,203.3 674.6,203.0 676.8,202.4 677.2,202.0 677.5,203.7 677.9,201.4 678.2,201.8 679.3,201.7 679.7,202.0 680.1,203.5 680.4,201.3 680.8,198.6 681.9,196.7 682.2,197.2 682.6,197.1 683.0,199.8 683.3,203.5 684.4,200.8 684.8,201.6 685.1,201.7 685.5,203.2 685.9,203.6 687.0,204.3 687.3,202.3 687.7,204.1 688.0,202.9 688.4,203.1 689.9,204.9 690.2,203.4 690.6,203.5 691.0,202.6 692.0,203.8 692.4,202.0 692.8,202.7 693.1,203.9 693.5,205.0 694.6,208.2 694.9,209.6 695.3,206.5 695.7,208.3 696.0,206.2 697.1,203.7 697.5,203.5 697.8,203.8 698.2,203.8 698.6,204.3 699.7,203.3 700.0,201.2 700.4,203.4 700.8,203.2 701.1,205.2 702.2,201.8 702.6,202.4 702.9,203.1 703.3,204.1 703.7,206.0 704.7,207.8 705.1,207.0 705.5,208.3 705.8,211.0 706.2,212.1 707.3,210.4 707.6,211.8 708.0,210.6 708.4,208.9 708.7,213.6 709.8,219.4 710.2,217.7 710.5,217.3 710.9,218.2 711.3,216.4 712.4,215.5 712.7,214.6 713.1,213.3 713.5,212.0 713.8,209.5 714.9,209.7 715.3,209.1 715.6,209.9 716.0,209.6 716.4,210.3 717.4,210.1 717.8,210.5 718.2,210.9 718.5,214.2 718.9,214.1 720.0,213.3 720.3,214.0 720.7,217.6 721.1,217.6 721.4,217.6 722.5,219.2 722.9,218.9 723.3,220.1 723.6,217.7 724.0,217.3 725.8,216.6 726.2,215.9 726.5,215.9 727.6,214.8 728.0,212.1 728.3,211.5 728.7,208.6 729.1,210.0 730.1,205.7 733.1,204.9 733.4,222.1 733.8,218.9 734.1,223.2 735.2,219.7 735.6,222.1 736.0,222.3 736.3,223.4 736.7,219.5 737.8,219.4 738.1,218.5 738.5,217.9 738.9,219.9 739.2,218.6 740.3,217.0 740.7,218.8 741.0,218.9 741.4,219.6 741.8,220.2 742.8,215.7 743.2,206.4 743.6,204.0 743.9,191.8 744.3,196.7 745.4,195.9 745.8,199.5 746.1,199.7 746.5,206.1 746.8,213.7 747.9,214.9 748.3,213.1 748.7,211.2 749.0,211.7 749.4,218.5 750.5,218.2 750.8,218.8 751.2,215.1 751.6,216.7 751.9,214.6 753.0,212.4 753.4,210.9 753.7,211.2 754.1,210.7 754.5,208.8 755.6,208.0 755.9,207.6 756.3,207.3 756.6,205.3 757.0,208.1 758.1,207.7 758.5,208.0 758.8,206.7 759.2,208.6 759.5,210.2 760.6,208.8 761.0,207.3 761.4,206.7 761.7,206.2 762.1,206.3 763.2,206.5 763.5,209.7 764.3,213.5 764.6,216.1 765.7,215.2 766.1,214.4 766.4,215.1 766.8,216.0 767.2,218.2 768.3,220.3 768.6,215.8 769.0,216.6 769.3,214.8 769.7,214.6 770.8,213.5 771.2,213.6 771.5,214.7 771.9,214.4 772.2,213.1 773.3,214.3 776.6,215.4 777.0,210.0 777.3,206.0 778.4,203.4 778.8,203.6 779.1,199.2 779.5,199.6 779.9,195.3 781.0,195.6 781.3,200.6 781.7,197.4 782.0,199.1 782.4,193.7 783.5,195.8 783.9,201.7 784.2,199.2 784.6,199.4 784.9,210.7 786.0,209.5 786.4,208.4 786.8,206.4 787.1,203.0 787.5,206.0 788.6,207.0 788.9,209.4 789.3,209.4 789.7,211.7 790.0,206.9 791.1,206.6 791.5,205.7 791.8,206.0 792.2,206.0 792.6,209.0 793.7,207.0 794.0,206.1 794.4,206.8 794.7,207.4 795.1,208.9 796.2,213.0 796.6,211.3 796.9,210.8 797.3,213.1 798.7,240.7 799.1,235.7 799.5,234.5 799.8,225.6 800.2,225.8 801.3,223.6 801.6,223.9 802.0,224.9 802.4,224.7 802.7,224.7 803.8,224.5 804.2,224.0 804.5,222.1 804.9,222.5 805.3,220.3 806.4,220.2 806.7,220.6 807.1,221.6 809.3,218.9 809.6,217.5 810.0,215.5 810.4,216.5 811.4,213.2 811.8,212.3 812.2,208.4 812.5,210.8 812.9,211.8 814.0,212.2 814.3,210.4 814.7,210.1 815.1,210.9 815.4,213.0 816.5,213.1 816.9,213.3 817.2,212.3 817.6,209.9 818.0,211.5 819.4,210.5 819.8,208.1 820.2,208.9 820.5,209.1 821.6,207.4 822.0,208.1 822.3,206.4 822.7,205.6 823.1,209.1 824.1,207.4 824.5,208.4 824.9,207.7 825.2,209.7 825.6,209.2 826.7,207.5 827.0,203.6 827.4,199.7 827.8,199.1 828.1,201.0 829.2,199.7 829.6,198.2 829.9,199.1 830.3,197.9 830.7,196.3 831.8,196.2 832.1,194.4 832.5,194.8 832.9,192.8 833.2,192.9 834.3,192.9 834.7,193.0 835.0,194.2 835.4,191.3 835.8,189.0 836.8,187.3 837.2,185.4 837.6,186.3 837.9,184.2 838.3,185.1 839.4,183.1 839.7,182.3 840.1,183.3 840.5,186.0 840.8,188.8 841.9,188.3 842.3,184.4 842.7,183.8 843.0,183.5 843.4,183.8 844.5,180.9 844.8,178.7 845.2,172.6 845.6,175.2 845.9,171.8 847.0,168.3 847.4,169.2 847.7,166.0 848.1,165.0 848.5,159.7 849.5,150.8 849.9,152.1 850.3,155.9 850.6,148.5 851.0,145.3 852.1,140.5 852.4,145.6 852.8,149.6 853.2,158.8 853.5,150.0 854.6,150.2 855.0,152.6 855.4,151.1 855.7,142.5 856.1,143.9 857.2,144.3 857.5,143.5 857.9,141.6 858.3,144.1 858.6,143.1 859.7,140.7 860.1,139.2 860.4,136.9 860.8,136.5 861.2,140.1 862.2,135.3 862.6,134.5 865.9,128.9 866.2,136.1 867.3,138.3 867.7,143.7 868.1,139.3 868.4,138.9 868.8,145.6 869.9,142.1 870.2,138.2 870.6,138.2 871.0,137.0 871.3,134.0 872.4,128.9 872.8,129.7 873.1,125.4 873.5,128.0 873.9,130.4 875.0,129.4 875.3,134.4 875.7,134.0 876.0,128.8 876.4,129.4 877.5,127.5 877.9,128.4 878.2,128.8 878.6,124.8 878.9,131.2 880.0,133.6 880.4,140.1 880.8,140.5 881.1,137.8 881.5,147.4 882.6,147.0 882.9,142.7 883.3,141.0 883.7,141.2 884.0,139.1 885.1,137.0 885.5,138.3 885.8,138.8 886.2,138.7 886.6,137.1 887.7,136.3 888.0,139.2 888.4,138.4 888.7,141.3 889.1,139.4 890.2,141.4 890.6,145.6 890.9,140.9 891.3,142.3 891.6,139.3 892.7,136.6 893.1,136.8 893.5,135.0 893.8,134.0 894.2,133.3 895.3,134.6 895.6,134.2 896.0,134.9" fill="none" stroke="#10b981" stroke-width="2.4"/><polyline points="70.0,339.0 70.4,338.6 70.7,336.1 71.1,333.2 72.2,330.0 72.5,331.3 72.9,332.4 73.3,332.2 73.6,336.5 74.7,335.6 75.1,334.5 75.4,336.4 75.8,336.4 76.2,334.4 77.3,332.1 77.6,333.4 78.0,334.8 78.3,335.2 78.7,330.1 79.8,328.1 80.2,326.1 80.5,327.5 80.9,327.0 81.3,328.5 82.3,333.9 82.7,333.9 83.1,334.1 83.4,333.7 83.8,335.9 84.9,333.5 85.2,330.5 85.6,333.5 86.0,335.0 86.3,338.0 87.4,335.8 87.8,334.8 88.1,336.0 88.5,337.1 88.9,339.7 90.0,339.1 90.3,338.0 90.7,338.1 91.0,335.8 91.4,334.0 92.5,334.5 92.9,334.1 93.2,333.9 93.6,334.8 94.0,328.8 95.0,327.3 95.4,323.1 95.8,323.8 96.1,324.3 96.5,325.0 97.6,328.9 97.9,326.9 98.3,327.1 98.7,324.3 99.0,324.7 100.1,320.0 100.5,318.8 101.2,314.5 101.6,315.1 102.7,316.3 103.0,313.9 103.4,317.6 103.8,313.6 104.1,313.7 105.2,310.5 105.6,311.6 105.9,313.4 106.3,314.8 106.7,314.3 107.7,311.9 108.1,317.5 108.5,316.1 108.8,326.1 112.8,350.6 113.2,343.0 113.6,339.7 113.9,334.2 114.3,334.2 115.4,332.9 115.7,330.1 116.1,327.6 116.5,329.5 116.8,327.3 117.9,320.3 118.3,321.9 118.6,322.4 119.0,315.1 119.4,314.7 120.4,316.0 120.8,316.7 121.2,320.7 121.5,319.8 121.9,331.0 123.0,320.9 123.3,319.3 123.7,317.4 124.1,310.3 124.4,315.6 125.5,326.6 125.9,319.9 126.3,324.2 126.6,330.2 127.0,334.5 128.1,347.5 128.4,349.0 128.8,354.7 129.2,358.3 129.5,353.4 130.6,362.9 131.0,355.5 131.3,348.0 131.7,349.9 132.1,348.9 133.1,351.7 133.5,350.8 133.9,351.7 134.2,347.0 134.6,348.7 136.1,342.1 136.4,343.5 136.8,342.5 137.1,344.3 138.2,345.6 138.6,339.9 139.0,342.1 139.3,341.7 139.7,338.9 140.8,337.8 141.1,341.3 141.5,338.9 141.9,339.6 142.2,342.2 143.3,340.2 143.7,338.1 144.0,336.7 144.4,333.2 146.6,331.3 146.9,332.2 147.3,329.2 148.4,329.5 148.8,329.5 149.1,328.8 149.5,332.2 149.8,333.1 150.9,332.4 151.3,329.8 151.7,331.4 152.0,333.1 152.4,340.1 153.5,339.6 153.8,336.3 154.2,338.4 154.6,337.5 154.9,336.7 156.0,328.6 156.4,327.6 156.7,327.6 157.1,327.8 157.5,326.3 158.6,324.7 158.9,322.7 159.3,323.3 159.6,326.7 160.0,326.1 161.1,329.9 161.5,325.2 161.8,325.0 162.2,322.9 162.5,318.7 163.6,318.4 164.0,316.9 164.4,315.5 166.2,317.8 166.5,313.6 166.9,307.1 167.3,300.2 167.6,293.7 168.7,274.2 169.1,272.0 169.4,266.1 169.8,260.9 170.2,267.8 171.3,260.0 171.6,263.6 172.0,268.4 172.3,286.2 172.7,284.0 173.8,273.4 174.2,272.6 174.5,270.8 174.9,270.9 175.2,287.0 176.3,285.2 176.7,282.1 177.1,273.5 177.4,275.3 177.8,272.3 178.9,266.3 179.2,266.0 179.6,265.9 180.0,267.0 180.3,271.3 181.4,270.0 181.8,273.3 182.1,276.0 182.5,276.9 182.9,271.5 184.0,262.9 184.3,263.1 184.7,268.7 185.0,273.5 185.4,270.4 186.5,267.5 186.9,267.1 187.2,271.4 187.6,269.5 187.9,260.7 189.0,262.8 189.4,260.8 189.8,260.7 190.1,262.8 190.5,266.4 191.6,274.3 191.9,272.3 192.3,280.9 192.7,281.1 193.0,277.5 194.1,275.7 194.5,272.8 194.8,275.2 195.2,277.1 195.6,269.0 196.7,272.6 197.0,276.9 197.4,275.6 197.7,282.5 198.1,282.0 199.2,281.1 199.6,280.3 199.9,280.7 203.2,273.4 204.3,262.3 204.6,261.1 205.0,263.6 205.4,264.2 205.7,264.8 206.8,267.6 207.2,264.6 207.5,264.7 207.9,265.8 208.3,270.5 209.4,272.6 209.7,271.9 210.1,269.0 210.4,266.2 210.8,272.3 211.9,270.3 212.3,265.9 212.6,263.0 213.0,257.5 213.4,257.4 214.4,250.0 214.8,252.1 215.2,255.9 215.5,255.7 215.9,259.7 217.0,256.0 217.3,256.7 217.7,257.0 218.1,254.1 218.4,253.0 219.5,248.2 219.9,250.5 220.2,255.5 220.6,254.8 221.0,250.0 222.1,251.6 222.4,243.3 222.8,243.3 223.2,244.1 223.5,243.4 224.6,246.8 225.0,247.8 225.3,253.0 225.7,253.2 226.1,257.1 227.1,253.6 227.5,252.8 227.9,252.1 228.2,247.2 228.6,248.5 229.7,244.9 230.0,251.3 230.4,248.0 230.8,248.5 231.1,245.3 232.2,243.5 232.6,245.2 232.9,239.7 233.3,232.1 234.8,227.7 235.1,219.9 235.5,216.0 235.9,208.6 236.2,210.0 237.3,214.2 237.7,202.1 238.0,203.6 238.4,211.9 238.8,212.9 239.8,208.2 240.2,214.5 240.6,211.5 240.9,204.6 241.3,204.2 242.4,199.8 242.7,208.6 243.1,207.5 243.5,219.2 243.8,221.2 244.9,216.0 245.3,209.5 245.7,210.8 246.0,211.7 246.4,210.9 247.5,204.6 247.8,195.1 248.2,185.7 251.1,188.7 251.5,187.9 252.5,202.1 252.9,203.4 253.3,214.5 253.6,212.0 254.0,222.3 255.1,216.0 255.5,221.3 255.8,213.4 256.2,226.7 256.5,228.1 257.6,242.3 258.0,250.8 258.4,248.3 258.7,238.6 259.1,237.2 260.2,245.8 260.5,242.4 260.9,240.7 261.3,237.5 261.6,248.0 262.7,244.1 263.1,247.8 263.4,254.1 263.8,254.3 264.2,245.6 265.2,244.9 265.6,241.2 266.0,244.8 266.3,239.9 266.7,236.0 268.2,237.6 268.5,240.5 268.9,239.8 269.2,245.8 270.3,252.6 270.7,253.2 271.1,250.1 271.4,252.5 271.8,251.2 272.9,241.8 273.2,242.1 273.6,240.9 274.0,241.6 274.3,238.0 275.4,242.5 275.8,241.5 276.1,239.3 276.5,235.8 276.9,238.9 279.0,243.8 279.4,248.9 280.5,249.1 280.9,246.7 281.2,245.1 281.6,249.1 281.9,239.9 283.0,234.1 283.4,233.9 283.8,235.1 284.1,234.0 284.5,238.1 285.6,236.4 285.9,223.8 286.3,223.6 286.7,222.2 287.0,223.6 288.1,222.7 288.5,222.0 288.8,226.0 289.2,228.7 289.6,226.6 290.7,226.9 291.0,230.5 291.4,230.1 291.7,227.4 292.1,231.1 293.6,235.6 293.9,242.3 294.3,240.6 294.6,240.6 295.7,241.5 296.1,239.0 296.5,237.1 296.8,236.4 297.2,229.9 298.3,229.0 298.6,233.7 299.0,231.1 299.4,230.7 299.7,242.2 300.8,241.9 301.2,242.1 301.5,237.6 301.9,241.7 302.3,243.1 303.4,238.2 303.7,237.5 304.1,242.1 304.4,236.8 304.8,241.2 305.9,239.7 306.3,240.1 306.6,237.3 307.0,236.7 307.3,241.6 308.4,254.4 308.8,267.9 309.2,267.2 309.5,260.2 309.9,263.2 311.0,253.7 311.3,253.6 311.7,250.2 312.1,252.5 312.4,254.6 313.5,249.7 313.9,245.2 314.2,247.3 314.6,250.6 315.0,252.7 316.1,253.1 316.4,261.2 316.8,256.8 317.1,259.3 317.5,266.5 318.6,261.3 319.0,257.2 319.3,256.5 319.7,264.0 320.1,262.0 321.1,263.1 321.5,263.7 321.9,258.7 322.2,258.7 322.6,260.8 323.7,253.7 324.0,249.1 324.4,250.7 324.8,250.9 325.1,247.5 326.2,249.2 326.6,255.0 326.9,258.9 327.3,263.5 327.7,259.8 329.5,262.4 329.8,260.0 330.2,260.3 331.3,258.1 331.7,257.6 332.0,261.5 332.4,258.9 335.3,254.0 336.4,253.5 336.7,257.6 337.1,253.2 337.5,255.3 337.8,253.8 338.9,258.3 339.3,254.6 339.6,255.5 340.0,254.1 340.4,251.7 341.5,250.1 341.8,251.4 342.2,256.5 342.6,259.1 342.9,255.6 344.0,257.1 344.4,261.0 344.7,262.5 345.1,258.8 345.5,260.8 346.5,260.4 346.9,260.5 347.3,262.5 347.6,256.4 348.0,257.2 349.1,257.7 349.4,257.6 349.8,257.4 350.2,261.2 350.5,257.1 351.6,255.4 352.0,255.3 352.3,255.0 352.7,256.6 353.1,259.4 354.2,260.1 354.5,261.6 354.9,260.7 355.3,259.7 355.6,256.2 356.7,256.9 357.1,254.6 357.4,248.9 357.8,242.4 358.2,244.3 359.2,242.0 359.6,244.7 360.0,248.1 360.3,245.8 360.7,252.1 361.8,257.8 362.1,255.3 362.5,255.2 362.9,252.5 363.2,254.7 364.3,254.8 364.7,252.0 365.1,257.6 365.4,254.7 365.8,253.2 367.2,254.9 367.6,258.8 368.0,262.7 368.3,262.4 369.4,260.7 369.8,264.3 370.1,260.6 370.5,266.8 370.9,269.8 371.9,266.7 372.3,263.1 372.7,265.6 373.0,262.3 373.4,265.7 374.5,265.1 374.9,273.6 375.2,270.9 375.6,278.1 375.9,282.5 379.6,277.0 379.9,279.0 380.3,275.6 380.7,276.6 381.0,279.6 382.1,283.4 382.5,279.7 382.8,278.3 383.2,277.4 383.6,275.7 384.6,277.0 385.0,281.7 385.4,277.9 385.7,285.2 386.1,281.7 387.2,281.1 387.6,278.1 387.9,281.3 388.3,283.4 388.6,287.7 389.7,298.9 390.1,305.7 390.5,308.8 390.8,303.6 391.2,302.5 392.3,312.8 392.6,327.6 393.0,314.2 393.4,307.9 393.7,305.7 394.8,306.2 395.2,306.5 395.5,304.8 395.9,306.8 396.3,312.8 397.4,314.8 397.7,315.9 398.1,306.6 398.4,309.0 398.8,304.9 400.6,305.8 401.0,310.1 401.3,308.4 402.4,318.6 402.8,312.4 403.2,315.5 403.5,311.5 403.9,311.7 405.0,313.4 405.3,315.9 405.7,320.9 406.1,326.7 406.4,325.3 407.5,340.8 407.9,343.2 408.2,334.5 408.6,332.5 409.0,325.1 411.1,325.6 411.5,333.5 412.6,335.9 413.0,332.6 413.3,328.2 413.7,329.6 414.0,327.3 415.1,329.7 415.5,325.9 415.9,327.0 416.2,326.4 416.6,320.3 417.7,322.2 418.0,329.5 418.4,327.7 418.8,326.9 419.1,326.3 420.2,324.1 420.6,319.2 420.9,319.9 421.3,319.4 422.8,313.4 423.1,312.4 423.5,309.3 423.8,312.7 424.2,307.8 425.3,311.6 425.7,309.1 426.0,304.7 426.4,306.9 426.7,302.3 427.8,300.7 428.2,301.0 428.6,305.3 428.9,299.6 429.3,295.6 430.4,291.8 430.7,288.2 431.1,293.6 431.5,288.6 431.8,290.0 432.9,287.8 433.3,288.3 433.6,293.4 434.0,291.9 434.4,293.0 435.5,298.8 435.8,302.0 436.2,301.3 436.5,301.3 436.9,307.0 438.0,303.6 438.4,305.4 438.7,304.3 439.1,308.0 439.4,307.8 440.5,309.8 440.9,307.2 441.3,308.9 441.6,308.8 442.0,313.1 443.1,311.7 443.4,318.0 443.8,321.2 444.2,318.5 444.5,314.2 445.6,314.8 446.0,314.2 446.3,317.8 446.7,311.3 447.1,311.5 448.2,311.9 448.5,312.5 448.9,309.5 449.2,312.3 449.6,314.6 450.7,312.2 451.1,313.8 451.4,320.0 451.8,317.3 452.2,318.0 453.2,319.4 453.6,320.5 454.0,320.2 454.3,323.0 454.7,324.5 455.8,325.2 456.1,322.3 456.5,322.1 456.9,323.4 457.2,319.1 458.7,317.7 459.0,321.3 459.4,324.3 459.8,331.6 460.9,332.0 461.2,331.6 461.6,333.9 462.0,336.5 462.3,337.6 463.4,339.1 463.8,334.7 464.1,339.7 464.5,339.8 464.9,341.5 468.5,348.1 468.8,347.6 469.2,343.2 469.6,345.6 469.9,338.6 471.0,338.3 471.4,339.0 471.7,343.8 472.1,345.4 472.5,346.4 473.6,354.9 473.9,355.4 474.3,353.1 474.7,355.1 475.0,362.1 476.1,364.6 476.5,354.8 476.8,351.4 477.2,353.8 477.6,344.5 478.6,343.9 479.0,345.9 479.4,348.6 479.7,350.8 480.1,342.8 481.2,342.4 481.5,336.8 481.9,339.3 482.3,340.5 482.6,341.8 483.7,344.3 484.1,344.3 484.5,344.0 484.8,345.3 485.2,343.8 486.3,347.1 486.6,338.2 487.0,337.8 487.4,334.6 487.7,336.4 488.8,330.5 489.2,328.8 489.5,329.6 489.9,329.5 490.3,326.5 491.3,330.0 491.7,330.6 492.1,329.9 492.4,330.1 492.8,329.9 493.9,334.7 494.3,339.7 494.6,339.6 495.0,339.1 495.3,339.7 496.4,338.5 496.8,335.1 497.2,336.4 497.5,337.5 497.9,336.4 499.3,335.1 499.7,334.7 500.1,328.8 500.4,327.9 501.5,325.3 501.9,325.0 502.2,325.6 502.6,325.0 503.0,320.6 504.0,315.6 504.4,315.7 504.8,316.2 505.1,314.2 505.5,312.2 509.1,310.7 509.5,314.2 509.9,311.1 510.2,312.3 510.6,315.3 511.7,319.6 512.0,319.0 512.4,320.4 512.8,316.2 513.1,318.1 514.2,315.2 514.6,315.1 514.9,316.7 515.3,319.1 515.7,323.7 516.8,316.0 517.1,315.1 517.5,318.0 517.8,318.3 518.2,321.6 519.3,323.0 519.7,321.0 520.0,316.5 520.4,317.2 520.7,316.2 521.8,317.9 522.2,322.6 522.6,323.7 522.9,324.8 523.3,328.9 524.4,325.7 524.7,327.6 525.1,327.4 525.5,331.1 525.8,329.6 526.9,331.1 527.3,327.7 527.6,326.4 528.0,323.3 528.4,324.3 529.5,325.4 529.8,326.4 530.2,325.9 530.5,323.4 530.9,322.4 532.0,319.3 532.4,318.3 533.1,318.8 533.4,316.8 534.5,318.2 534.9,318.6 535.3,318.8 535.6,321.0 536.0,319.2 537.1,314.7 537.4,313.8 537.8,316.7 538.2,317.6 538.5,323.8 539.6,327.7 540.0,329.3 540.3,329.5 540.7,327.3 541.1,324.1 543.2,324.0 543.6,325.1 544.7,321.5 545.1,324.2 545.4,326.6 545.8,327.1 546.1,331.2 547.2,326.5 547.6,328.1 548.0,329.5 548.3,329.8 548.7,330.7 549.8,328.8 550.1,333.1 550.5,337.3 550.9,338.0 551.2,338.0 552.3,339.3 552.7,339.0 553.0,342.0 553.4,341.4 553.8,337.1 554.9,338.5 555.2,341.3 555.6,342.8 555.9,340.4 556.3,339.1 557.4,338.5 557.8,336.9 558.1,336.9 558.5,332.2 558.8,329.2 559.9,331.7 560.3,332.3 560.7,336.9 562.5,341.2 562.8,338.4 563.2,338.8 563.6,340.2 563.9,338.6 565.0,334.7 565.4,334.2 565.7,336.6 566.1,338.6 566.5,339.9 567.6,338.5 567.9,336.5 568.3,338.5 568.6,334.3 569.0,334.2 570.1,336.7 570.5,337.7 570.8,338.0 571.2,340.1 571.6,340.2 572.6,341.5 573.0,333.0 573.4,333.6 573.7,334.0 574.1,326.9 575.2,325.2 575.5,326.5 575.9,328.7 576.3,326.0 576.6,324.8 577.7,327.1 578.1,327.9 578.4,328.9 578.8,328.3 579.2,335.4 580.3,337.6 580.6,338.3 581.0,340.5 581.4,339.5 581.7,343.2 582.8,347.4 583.2,345.2 583.5,350.0 583.9,347.9 584.3,349.0 585.3,345.6 585.7,342.7 586.1,342.8 586.4,344.6 586.8,342.6 587.9,338.1 588.2,340.3 588.6,341.0 589.0,345.2 589.3,346.6 590.4,344.5 590.8,345.0 591.1,346.9 591.5,347.1 591.9,349.0 593.0,347.6 593.3,348.1 593.7,349.3 594.1,351.9 594.4,346.7 595.5,348.6 595.9,350.3 596.2,349.7 596.6,350.5 600.6,350.9 600.9,353.0 601.3,352.2 601.7,349.5 602.0,352.6 603.1,355.4 603.5,354.4 603.9,356.7 604.2,362.7 604.6,364.5 605.7,367.3 606.0,366.3 606.4,364.9 606.8,364.2 607.1,360.4 608.2,358.8 608.6,359.6 608.9,359.7 609.3,361.1 609.7,358.7 610.7,355.0 611.1,356.0 611.5,356.6 611.8,356.5 612.2,358.5 613.3,359.1 613.7,358.9 614.0,356.9 614.4,359.6 614.7,360.0 615.8,359.3 616.2,359.0 616.6,361.8 616.9,360.5 617.3,362.3 618.4,364.3 618.7,363.8 619.1,366.2 619.5,365.6 619.8,366.6 620.9,368.4 621.3,373.5 621.6,373.1 622.0,373.7 622.4,373.1 623.4,371.5 623.8,371.0 624.2,375.4 624.5,376.8 624.9,377.6 626.0,378.6 626.4,378.2 626.7,381.0 627.1,378.4 627.4,377.9 628.5,377.1 628.9,378.9 629.3,378.0 629.6,371.9 630.0,370.6 631.4,374.1 631.8,374.7 632.2,377.2 632.5,378.6 633.6,381.9 634.0,381.4 634.3,382.6 634.7,381.2 635.1,382.1 636.2,382.3 636.5,380.8 636.9,386.4 637.2,382.8 637.6,383.2 638.7,387.2 639.1,386.1 639.4,382.6 639.8,377.5 640.1,378.2 641.2,380.5 641.6,385.1 642.0,387.4 642.3,387.2 642.7,390.2 643.8,388.6 644.1,379.9 644.5,377.4 644.9,375.8 648.9,372.8 649.2,372.2 649.6,368.6 649.9,366.3 650.3,366.1 651.4,368.9 651.8,365.7 652.1,369.1 652.5,364.0 652.8,362.3 653.9,362.1 654.3,360.2 654.7,361.3 655.0,363.0 655.4,361.8 656.5,358.3 656.8,357.7 657.2,359.6 657.6,360.4 657.9,359.8 659.0,357.2 659.4,359.2 659.7,358.6 660.1,359.0 660.5,361.8 661.6,363.3 661.9,361.9 662.3,365.1 662.6,363.6 663.0,362.4 664.1,357.8 664.5,359.0 664.8,360.0 666.6,362.4 667.0,362.7 667.4,364.9 667.7,364.9 668.1,367.2 669.2,361.5 669.5,364.4 669.9,360.2 670.3,359.8 670.6,362.0 671.7,362.9 672.1,364.8 672.4,363.6 672.8,362.9 673.2,358.7 674.3,355.6 674.6,357.2 676.8,353.0 677.2,352.9 677.5,355.1 677.9,352.5 678.2,352.3 679.3,352.5 679.7,353.1 680.1,355.5 680.4,354.4 680.8,351.4 681.9,350.4 682.2,351.6 682.6,350.9 683.0,354.2 683.3,357.4 684.4,354.7 684.8,356.8 685.1,356.4 685.5,357.9 685.9,359.1 687.0,358.4 687.3,356.3 687.7,357.9 688.0,358.1 688.4,359.5 689.9,361.9 690.2,361.8 690.6,363.2 691.0,362.0 692.0,362.5 692.4,361.7 692.8,363.0 693.1,365.0 693.5,365.6 694.6,367.1 694.9,368.6 695.3,366.8 695.7,368.8 696.0,368.3 697.1,367.0 697.5,367.5 697.8,368.1 698.2,369.5 698.6,370.6 699.7,372.9 700.0,370.0 700.4,370.8 700.8,367.8 701.1,367.4 702.2,367.1 702.6,365.4 702.9,365.2 703.3,363.6 703.7,362.2 704.7,364.1 705.1,370.0 705.5,371.6 705.8,373.1 706.2,372.3 707.3,373.8 707.6,375.4 708.0,369.8 708.4,371.6 708.7,374.3 709.8,377.5 710.2,377.5 710.5,377.6 710.9,377.5 711.3,378.4 712.4,378.8 712.7,378.2 713.1,380.1 713.5,377.6 713.8,377.3 714.9,376.4 715.3,378.3 715.6,379.2 716.0,379.8 716.4,378.7 717.4,379.0 717.8,380.4 718.2,381.9 718.5,382.6 718.9,379.2 720.0,383.6 720.3,382.9 720.7,384.6 721.1,384.1 721.4,386.2 722.5,389.2 722.9,389.0 723.3,389.7 723.6,390.8 724.0,391.8 725.8,390.9 726.2,388.9 726.5,388.5 727.6,387.6 728.0,376.8 728.3,372.9 728.7,361.7 729.1,349.4 730.1,325.0 733.1,306.4 733.4,329.8 733.8,326.5 734.1,335.1 735.2,329.4 735.6,337.6 736.0,339.5 736.3,342.8 736.7,332.2 737.8,331.4 738.1,329.7 738.5,328.4 738.9,331.9 739.2,329.8 740.3,329.2 740.7,332.2 741.0,335.0 741.4,334.8 741.8,334.9 742.8,330.7 743.2,322.9 743.6,324.5 743.9,315.0 744.3,318.3 745.4,316.2 745.8,319.7 746.1,317.7 746.5,323.3 746.8,328.8 747.9,330.2 748.3,328.2 748.7,327.5 749.0,327.2 749.4,336.8 750.5,338.2 750.8,338.8 751.2,333.6 751.6,336.3 751.9,332.9 753.0,330.4 753.4,330.1 753.7,331.8 754.1,332.5 754.5,328.5 755.6,329.0 755.9,326.7 756.3,327.2 756.6,324.1 757.0,331.6 758.1,333.2 758.5,332.4 758.8,330.9 759.2,330.6 759.5,332.0 760.6,331.5 761.0,327.6 761.4,327.5 761.7,327.3 762.1,327.8 763.2,326.4 763.5,331.4 764.3,340.3 764.6,343.9 765.7,344.3 766.1,342.2 766.4,342.8 766.8,343.5 767.2,347.2 768.3,348.0 768.6,340.3 769.0,342.2 769.3,341.9 769.7,341.0 770.8,339.6 771.2,339.4 771.5,342.2 771.9,341.6 772.2,339.4 773.3,340.6 776.6,342.3 777.0,338.6 777.3,334.7 778.4,334.1 778.8,335.5 779.1,332.6 779.5,333.7 779.9,331.1 781.0,330.5 781.3,333.2 781.7,331.0 782.0,331.9 782.4,328.0 783.5,328.7 783.9,332.2 784.2,329.5 784.6,328.8 784.9,334.9 786.0,335.0 786.4,335.3 786.8,333.9 787.1,329.8 787.5,330.7 788.6,331.9 788.9,330.9 789.3,332.0 789.7,333.2 790.0,325.9 791.1,326.6 791.5,325.8 791.8,325.6 792.2,328.3 792.6,333.0 793.7,331.4 794.0,331.6 794.4,332.6 794.7,331.6 795.1,333.0 796.2,335.1 796.6,335.1 796.9,335.4 797.3,337.1 798.7,358.3 799.1,353.5 799.5,350.7 799.8,347.0 800.2,345.8 801.3,345.1 801.6,344.9 802.0,344.0 802.4,344.1 802.7,344.1 803.8,343.1 804.2,343.2 804.5,342.9 804.9,343.1 805.3,342.9 806.4,343.4 806.7,343.9 807.1,344.2 809.3,341.3 809.6,339.5 810.0,337.8 810.4,338.3 811.4,334.9 811.8,334.4 812.2,330.8 812.5,333.6 812.9,335.0 814.0,335.9 814.3,334.3 814.7,332.9 815.1,333.1 815.4,335.5 816.5,337.3 816.9,338.9 817.2,339.1 817.6,337.4 818.0,338.8 819.4,337.9 819.8,336.6 820.2,335.9 820.5,336.2 821.6,335.3 822.0,336.8 822.3,334.6 822.7,334.8 823.1,336.9 824.1,336.2 824.5,336.5 824.9,336.1 825.2,338.6 825.6,338.3 826.7,337.4 827.0,333.8 827.4,329.5 827.8,330.6 828.1,332.5 829.2,331.3 829.6,330.8 829.9,330.7 830.3,328.8 830.7,327.7 831.8,329.1 832.1,326.5 832.5,327.0 832.9,325.6 833.2,325.2 834.3,325.0 834.7,324.9 835.0,325.8 835.4,323.7 835.8,321.8 836.8,319.7 837.2,317.1 837.6,317.0 837.9,314.8 838.3,316.5 839.4,315.8 839.7,314.5 840.1,314.6 840.5,320.5 840.8,322.1 841.9,320.9 842.3,318.3 842.7,317.5 843.0,317.4 843.4,318.2 844.5,316.8 844.8,315.2 845.2,312.6 845.6,312.9 845.9,310.6 847.0,307.7 847.4,309.0 847.7,305.2 848.1,303.9 848.5,296.9 849.5,289.8 849.9,291.1 850.3,296.3 850.6,290.3 851.0,287.7 852.1,285.6 852.4,288.2 852.8,290.6 853.2,297.9 853.5,290.5 854.6,290.0 855.0,292.4 855.4,291.7 855.7,283.7 856.1,285.7 857.2,284.9 857.5,285.6 857.9,283.5 858.3,287.6 858.6,287.3 859.7,285.7 860.1,285.9 860.4,282.3 860.8,280.2 861.2,283.6 862.2,278.1 862.6,276.5 865.9,271.2 866.2,278.4 867.3,280.1 867.7,284.4 868.1,279.2 868.4,278.2 868.8,286.3 869.9,284.5 870.2,279.1 870.6,280.3 871.0,279.2 871.3,274.9 872.4,270.6 872.8,272.5 873.1,268.2 873.5,271.1 873.9,276.5 875.0,275.5 875.3,278.2 875.7,277.6 876.0,272.4 876.4,273.5 877.5,272.3 877.9,275.6 878.2,276.1 878.6,271.7 878.9,277.5 880.0,279.8 880.4,282.1 880.8,280.6 881.1,282.4 881.5,291.1 882.6,291.5 882.9,288.2 883.3,286.1 883.7,286.3 884.0,285.4 885.1,281.5 885.5,283.2 885.8,285.0 886.2,283.8 886.6,280.9 887.7,278.0 888.0,279.8 888.4,280.3 888.7,283.4 889.1,281.2 890.2,283.4 890.6,287.6 890.9,281.2 891.3,283.3 891.6,282.1 892.7,278.8 893.1,278.1 893.5,277.0 893.8,276.4 894.2,275.2 895.3,276.6 895.6,275.7 896.0,277.3" fill="none" stroke="#f97316" stroke-width="2.4"/>
</svg>