<svg xmlns="http://www.w3.org/2000/svg" width="920" height="470" viewBox="0 0 920 470">
<style>.title{font:700 22px -apple-system,BlinkMacSystemFont,"PingFang SC",sans-serif;fill:#172033}.axis{font:12px -apple-system,BlinkMacSystemFont,"PingFang SC",sans-serif;fill:#64748b}.legend{font:13px -apple-system,BlinkMacSystemFont,"PingFang SC",sans-serif;fill:#334155}</style>
<rect width="100%" height="100%" fill="#ffffff"/>
<text x="70" y="30" class="title">年度收益归因</text>
<rect x="70" y="54" width="12" height="12" fill="#10b981"/><text x="88" y="65" class="legend">风险策略贡献</text><rect x="220" y="54" width="12" height="12" fill="#d4a017"/><text x="238" y="65" class="legend">黄金贡献</text><rect x="370" y="54" width="12" height="12" fill="#64748b"/><text x="388" y="65" class="legend">短债贡献</text><rect x="520" y="54" width="12" height="12" fill="#dc2626"/><text x="538" y="65" class="legend">调仓成本</text>
<line x1="70" x2="896" y1="410.0" y2="410.0" stroke="#e2e8f0"/><text x="60" y="414.0" text-anchor="end" class="axis">-4%</text><line x1="70" x2="896" y1="330.5" y2="330.5" stroke="#e2e8f0"/><text x="60" y="334.5" text-anchor="end" class="axis">3%</text><line x1="70" x2="896" y1="251.0" y2="251.0" stroke="#e2e8f0"/><text x="60" y="255.0" text-anchor="end" class="axis">9%</text><line x1="70" x2="896" y1="171.5" y2="171.5" stroke="#e2e8f0"/><text x="60" y="175.5" text-anchor="end" class="axis">16%</text><line x1="70" x2="896" y1="92.0" y2="92.0" stroke="#e2e8f0"/><text x="60" y="96.0" text-anchor="end" class="axis">22%</text>
<line x1="70" x2="896" y1="361.0" y2="361.0" stroke="#334155"/>
<line x1="70" x2="70" y1="92" y2="410" stroke="#94a3b8"/>
<rect x="99.5" y="320.6" width="59.0" height="40.4" fill="#10b981"/><rect x="99.5" y="361.0" width="59.0" height="0.2" fill="#d4a017"/><rect x="99.5" y="320.6" width="59.0" height="0.0" fill="#64748b"/><rect x="99.5" y="361.2" width="59.0" height="0.0" fill="#dc2626"/><text x="129.0" y="446" text-anchor="middle" class="axis">2019</text><rect x="217.5" y="206.3" width="59.0" height="154.8" fill="#10b981"/><rect x="217.5" y="172.8" width="59.0" height="33.5" fill="#d4a017"/><rect x="217.5" y="170.7" width="59.0" height="2.1" fill="#64748b"/><rect x="217.5" y="361.0" width="59.0" height="0.0" fill="#dc2626"/><text x="247.0" y="446" text-anchor="middle" class="axis">2020</text><rect x="335.5" y="295.8" width="59.0" height="65.2" fill="#10b981"/><rect x="335.5" y="361.0" width="59.0" height="11.2" fill="#d4a017"/><rect x="335.5" y="289.2" width="59.0" height="6.7" fill="#64748b"/><rect x="335.5" y="372.2" width="59.0" height="0.0" fill="#dc2626"/><text x="365.0" y="446" text-anchor="middle" class="axis">2021</text><rect x="453.5" y="361.0" width="59.0" height="18.2" fill="#10b981"/><rect x="453.5" y="338.7" width="59.0" height="22.3" fill="#d4a017"/><rect x="453.5" y="333.5" width="59.0" height="5.1" fill="#64748b"/><rect x="453.5" y="379.2" width="59.0" height="0.0" fill="#dc2626"/><text x="483.0" y="446" text-anchor="middle" class="axis">2022</text><rect x="571.5" y="329.8" width="59.0" height="31.2" fill="#10b981"/><rect x="571.5" y="291.6" width="59.0" height="38.2" fill="#d4a017"/><rect x="571.5" y="285.9" width="59.0" height="5.7" fill="#64748b"/><rect x="571.5" y="361.0" width="59.0" height="0.0" fill="#dc2626"/><text x="601.0" y="446" text-anchor="middle" class="axis">2023</text><rect x="689.5" y="346.8" width="59.0" height="14.2" fill="#10b981"/><rect x="689.5" y="285.2" width="59.0" height="61.6" fill="#d4a017"/><rect x="689.5" y="279.8" width="59.0" height="5.3" fill="#64748b"/><rect x="689.5" y="361.0" width="59.0" height="0.0" fill="#dc2626"/><text x="719.0" y="446" text-anchor="middle" class="axis">2024</text><rect x="807.5" y="240.0" width="59.0" height="121.0" fill="#10b981"/><rect x="807.5" y="126.4" width="59.0" height="113.6" fill="#d4a017"/><rect x="807.5" y="122.7" width="59.0" height="3.6" fill="#64748b"/><rect x="807.5" y="361.0" width="59.0" height="0.0" fill="#dc2626"/><text x="837.0" y="446" text-anchor="middle" class="axis">2025</text>
</svg>