<svg xmlns="http://www.w3.org/2000/svg" width="920" height="470" viewBox="0 0 920 470">
<style>.title{font:700 22px -apple-system,BlinkMacSystemFont,"PingFang SC",sans-serif;fill:#172033}.axis{font:12px -apple-system,BlinkMacSystemFont,"PingFang SC",sans-serif;fill:#64748b}.legend{font:13px -apple-system,BlinkMacSystemFont,"PingFang SC",sans-serif;fill:#334155}</style>
<rect width="100%" height="100%" fill="#ffffff"/>
<text x="70" y="30" class="title">回撤曲线</text>
<text x="18" y="253.0" transform="rotate(-90 18 253.0)" class="axis">回撤</text>
<rect x="70" y="54" width="12" height="12" fill="#2563eb"/><text x="88" y="65" class="legend">V2.9 最终组合</text><rect x="240" y="54" width="12" height="12" fill="#10b981"/><text x="258" y="65" class="legend">沪深300基准</text>
<line x1="70" x2="896" y1="414.0" y2="414.0" stroke="#e2e8f0"/><text x="60" y="418.0" text-anchor="end" class="axis">-49%</text><line x1="70" x2="896" y1="333.5" y2="333.5" stroke="#e2e8f0"/><text x="60" y="337.5" text-anchor="end" class="axis">-36%</text><line x1="70" x2="896" y1="253.0" y2="253.0" stroke="#e2e8f0"/><text x="60" y="257.0" text-anchor="end" class="axis">-23%</text><line x1="70" x2="896" y1="172.5" y2="172.5" stroke="#e2e8f0"/><text x="60" y="176.5" text-anchor="end" class="axis">-10%</text><line x1="70" x2="896" y1="92.0" y2="92.0" stroke="#e2e8f0"/><text x="60" y="96.0" text-anchor="end" class="axis">4%</text><text x="70.0" y="448" text-anchor="middle" class="axis">2019</text><text x="100.8" y="448" text-anchor="middle" class="axis">2020</text><text x="233.7" y="448" text-anchor="middle" class="axis">2021</text><text x="366.1" y="448" text-anchor="middle" class="axis">2022</text><text x="498.6" y="448" text-anchor="middle" class="axis">2023</text><text x="631.1" y="448" text-anchor="middle" class="axis">2024</text><text x="763.9" y="448" text-anchor="middle" class="axis">2025</text>
<line x1="70" x2="896" y1="414" y2="414" stroke="#94a3b8"/>
<line x1="70" x2="70" y1="92" y2="414" stroke="#94a3b8"/>
<polyline points="70.0,114.2 70.4,114.2 70.7,114.2 71.1,114.2 72.2,114.2 72.5,115.4 72.9,115.8 73.3,115.3 73.6,118.9 74.7,119.2 75.1,118.0 75.4,119.4 75.8,119.1 76.2,116.5 77.3,114.3 77.6,116.4 78.0,118.5 78.3,118.9 78.7,115.1 79.8,114.2 80.2,114.2 80.5,118.2 80.9,116.5 81.3,119.8 82.3,124.5 82.7,125.0 83.1,123.4 83.4,122.0 83.8,123.7 84.9,121.6 85.2,117.1 85.6,118.8 86.0,120.6 86.3,123.3 87.4,122.3 87.8,121.3 88.1,121.4 88.5,121.7 88.9,122.6 90.0,121.4 90.3,121.2 90.7,120.1 91.0,119.0 91.4,118.7 92.5,118.6 92.9,118.5 93.2,118.6 93.6,117.7 94.0,115.7 95.0,114.2 95.4,114.2 95.8,115.2 96.1,115.4 96.5,115.0 97.6,117.4 97.9,115.0 98.3,114.2 98.7,114.2 99.0,114.2 100.1,114.2 100.5,114.2 101.2,114.2 101.6,114.2 102.7,114.2 103.0,114.2 103.4,117.4 103.8,116.9 104.1,115.6 105.2,114.2 105.6,116.0 105.9,116.3 106.3,116.6 106.7,116.0 107.7,114.8 108.1,118.9 108.5,118.1 108.8,123.7 112.8,141.4 113.2,136.3 113.6,132.6 113.9,129.5 114.3,128.6 115.4,126.3 115.7,122.6 116.1,119.8 116.5,114.2 116.8,118.3 117.9,117.1 118.3,120.5 118.6,120.2 119.0,118.1 119.4,118.2 120.4,120.6 120.8,120.9 121.2,121.4 121.5,122.0 121.9,130.5 123.0,125.9 123.3,125.5 123.7,121.9 124.1,119.4 124.4,119.9 125.5,128.4 125.9,125.3 126.3,127.6 126.6,132.5 127.0,137.3 128.1,148.1 128.4,152.8 128.8,153.6 129.2,154.2 129.5,150.0 130.6,156.6 131.0,145.8 131.3,139.1 131.7,141.5 132.1,140.6 133.1,144.0 133.5,143.9 133.9,146.6 134.2,143.4 134.6,144.2 136.1,136.8 136.4,138.6 136.8,137.7 137.1,138.7 138.2,139.5 138.6,135.6 139.0,134.4 139.3,132.9 139.7,131.2 140.8,131.4 141.1,131.9 141.5,130.1 141.9,126.9 142.2,127.1 143.3,123.8 143.7,122.1 144.0,118.1 144.4,116.4 146.6,116.3 146.9,115.5 147.3,114.2 148.4,115.7 148.8,116.1 149.1,114.2 149.5,116.0 149.8,115.3 150.9,114.2 151.3,114.2 151.7,115.2 152.0,116.5 152.4,125.1 153.5,121.7 153.8,117.4 154.2,120.2 154.6,118.1 154.9,116.6 156.0,114.2 156.4,115.3 156.7,116.2 157.1,115.4 157.5,114.7 158.6,115.0 158.9,114.2 159.3,114.2 159.6,115.8 160.0,116.1 161.1,119.4 161.5,114.5 161.8,114.2 162.2,114.2 162.5,114.2 163.6,114.2 164.0,114.2 164.4,114.2 166.2,115.8 166.5,114.2 166.9,114.2 167.3,114.2 167.6,114.2 168.7,114.2 169.1,114.2 169.4,114.2 169.8,114.2 170.2,116.8 171.3,114.2 171.6,118.4 172.0,122.3 172.3,140.2 172.7,139.5 173.8,132.7 174.2,129.4 174.5,125.9 174.9,126.2 175.2,135.5 176.3,132.6 176.7,130.7 177.1,125.9 177.4,127.0 177.8,123.1 178.9,119.1 179.2,118.4 179.6,115.1 180.0,114.4 180.3,114.2 181.4,114.3 181.8,118.7 182.1,127.5 182.5,124.2 182.9,121.4 184.0,117.2 184.3,114.3 184.7,116.9 185.0,121.0 185.4,119.0 186.5,117.0 186.9,114.8 187.2,118.0 187.6,114.2 187.9,114.2 189.0,114.2 189.4,114.2 189.8,114.6 190.1,115.5 190.5,123.4 191.6,132.2 191.9,129.4 192.3,136.3 192.7,135.3 193.0,135.4 194.1,133.2 194.5,130.1 194.8,130.9 195.2,134.1 195.6,127.5 196.7,130.3 197.0,136.3 197.4,137.0 197.7,143.5 198.1,143.0 199.2,142.6 199.6,140.2 199.9,140.9 203.2,136.0 204.3,128.4 204.6,127.7 205.0,129.7 205.4,132.4 205.7,132.7 206.8,133.9 207.2,133.0 207.5,133.6 207.9,135.1 208.3,138.8 209.4,141.0 209.7,140.5 210.1,140.0 210.4,140.8 210.8,145.9 211.9,143.6 212.3,137.7 212.6,133.2 213.0,127.3 213.4,130.0 214.4,123.9 214.8,128.4 215.2,131.1 215.5,129.0 215.9,133.3 217.0,127.5 217.3,130.7 217.7,132.7 218.1,132.4 218.4,129.3 219.5,126.4 219.9,129.9 220.2,136.0 220.6,134.9 221.0,133.5 222.1,137.6 222.4,133.9 222.8,131.9 223.2,131.7 223.5,131.8 224.6,135.5 225.0,134.5 225.3,137.7 225.7,140.3 226.1,142.2 227.1,141.6 227.5,140.5 227.9,139.0 228.2,136.4 228.6,135.3 229.7,132.0 230.0,137.8 230.4,136.8 230.8,138.0 231.1,135.3 232.2,135.3 232.6,136.1 232.9,134.7 233.3,131.5 234.8,129.1 235.1,125.4 235.5,124.0 235.9,121.5 236.2,123.1 237.3,131.8 237.7,126.0 238.0,128.3 238.4,133.5 238.8,134.2 239.8,132.8 240.2,133.5 240.6,132.3 240.9,127.4 241.3,128.9 242.4,128.4 242.7,131.3 243.1,130.6 243.5,137.7 243.8,138.8 244.9,135.7 245.3,134.3 245.7,135.3 246.0,137.5 246.4,138.1 247.5,135.7 247.8,132.2 248.2,129.9 251.1,132.2 251.5,131.0 252.5,131.9 252.9,132.2 253.3,135.2 253.6,134.1 254.0,140.9 255.1,138.4 255.5,141.3 255.8,137.7 256.2,143.9 256.5,146.8 257.6,149.7 258.0,153.6 258.4,151.9 258.7,145.8 259.1,145.5 260.2,146.0 260.5,143.9 260.9,143.2 261.3,140.8 261.6,146.3 262.7,144.1 263.1,145.2 263.4,147.6 263.8,148.1 264.2,145.5 265.2,144.2 265.6,144.9 266.0,146.8 266.3,141.6 266.7,136.7 268.2,137.8 268.5,139.4 268.9,136.7 269.2,138.9 270.3,142.3 270.7,143.5 271.1,139.5 271.4,140.7 271.8,136.0 272.9,132.3 273.2,134.3 273.6,131.9 274.0,131.1 274.3,131.2 275.4,133.4 275.8,131.9 276.1,130.0 276.5,128.3 276.9,130.8 279.0,132.6 279.4,133.7 280.5,131.0 280.9,132.7 281.2,130.3 281.6,133.6 281.9,128.8 283.0,124.7 283.4,123.6 283.8,125.0 284.1,125.9 284.5,125.7 285.6,124.8 285.9,119.6 286.3,117.9 286.7,117.5 287.0,119.2 288.1,116.9 288.5,115.0 288.8,119.3 289.2,120.1 289.6,120.1 290.7,118.0 291.0,121.5 291.4,121.5 291.7,119.9 292.1,120.2 293.6,123.5 293.9,125.7 294.3,127.4 294.6,127.0 295.7,127.4 296.1,125.5 296.5,122.6 296.8,123.3 297.2,121.6 298.3,122.2 298.6,123.3 299.0,122.6 299.4,121.6 299.7,125.8 300.8,124.3 301.2,122.9 301.5,121.4 301.9,123.3 302.3,122.3 303.4,120.6 303.7,118.8 304.1,119.3 304.4,117.2 304.8,118.4 305.9,119.8 306.3,119.1 306.6,118.0 307.0,117.6 307.3,117.5 308.4,121.2 308.8,127.5 309.2,127.9 309.5,125.1 309.9,126.1 311.0,124.2 311.3,125.3 311.7,123.0 312.1,123.3 312.4,122.7 313.5,124.9 313.9,124.6 314.2,122.9 314.6,121.0 315.0,120.4 316.1,119.1 316.4,120.1 316.8,119.9 317.1,122.1 317.5,121.3 318.6,118.7 319.0,115.9 319.3,115.6 319.7,115.6 320.1,114.2 321.1,114.2 321.5,114.2 321.9,115.7 322.2,114.2 322.6,115.7 323.7,114.2 324.0,114.2 324.4,115.2 324.8,114.3 325.1,114.2 326.2,114.3 326.6,115.2 326.9,114.3 327.3,117.7 327.7,119.7 329.5,117.5 329.8,118.1 330.2,120.7 331.3,122.2 331.7,122.7 332.0,125.2 332.4,124.7 335.3,123.7 336.4,124.8 336.7,125.4 337.1,125.9 337.5,124.0 337.8,123.4 338.9,124.2 339.3,123.0 339.6,124.0 340.0,123.0 340.4,159.8 341.5,123.7 341.8,122.9 342.2,124.8 342.6,124.9 342.9,125.4 344.0,124.8 344.4,124.6 344.7,125.5 345.1,124.2 345.5,124.4 346.5,122.2 346.9,120.0 347.3,121.2 347.6,118.7 348.0,116.9 349.1,118.7 349.4,120.4 349.8,119.6 350.2,118.0 350.5,116.7 351.6,117.0 352.0,119.6 352.3,120.3 352.7,120.5 353.1,121.0 354.2,120.9 354.5,120.2 354.9,120.6 355.3,121.7 355.6,119.3 356.7,119.9 357.1,119.5 357.4,115.9 357.8,115.4 358.2,116.3 359.2,114.9 359.6,115.6 360.0,117.6 360.3,115.5 360.7,116.6 361.8,118.1 362.1,117.5 362.5,117.4 362.9,114.2 363.2,114.4 364.3,114.7 364.7,114.2 365.1,116.9 365.4,117.4 365.8,115.7 367.2,115.6 367.6,117.8 368.0,119.7 368.3,120.6 369.4,120.5 369.8,121.0 370.1,119.8 370.5,155.4 370.9,121.8 371.9,121.8 372.3,121.8 372.7,122.2 373.0,121.0 373.4,122.8 374.5,123.4 374.9,126.0 375.2,125.7 375.6,129.9 375.9,130.3 379.6,126.7 379.9,122.6 380.3,121.7 380.7,119.5 381.0,119.6 382.1,120.6 382.5,120.7 382.8,121.1 383.2,120.5 383.6,116.7 384.6,116.9 385.0,116.2 385.4,117.9 385.7,117.6 386.1,119.5 387.2,120.0 387.6,118.8 387.9,116.8 388.3,116.7 388.6,117.7 389.7,116.1 390.1,116.7 390.5,116.6 390.8,119.7 391.2,119.2 392.3,121.7 392.6,130.4 393.0,129.4 393.4,126.5 393.7,123.3 394.8,124.1 395.2,121.7 395.5,122.5 395.9,121.3 396.3,120.5 397.4,118.9 397.7,120.1 398.1,119.4 398.4,117.5 398.8,115.2 400.6,114.2 401.0,118.1 401.3,114.7 402.4,116.4 402.8,116.7 403.2,116.4 403.5,114.5 403.9,114.6 405.0,115.7 405.3,115.5 405.7,119.4 406.1,119.9 406.4,117.8 407.5,123.0 407.9,124.0 408.2,123.4 408.6,121.2 409.0,117.8 411.1,118.2 411.5,121.4 412.6,120.3 413.0,120.1 413.3,120.6 413.7,119.6 414.0,118.8 415.1,119.0 415.5,119.2 415.9,121.0 416.2,119.9 416.6,118.8 417.7,119.5 418.0,121.3 418.4,119.4 418.8,117.8 419.1,116.7 420.2,117.6 420.6,118.1 420.9,118.7 421.3,118.7 422.8,119.1 423.1,119.4 423.5,118.2 423.8,117.5 424.2,117.7 425.3,117.7 425.7,118.4 426.0,118.3 426.4,119.6 426.7,119.1 427.8,120.0 428.2,119.8 428.6,121.3 428.9,120.8 429.3,122.0 430.4,119.9 430.7,120.0 431.1,119.5 431.5,119.2 431.8,120.3 432.9,119.5 433.3,119.7 433.6,126.3 434.0,127.6 434.4,127.5 435.5,129.3 435.8,128.8 436.2,129.5 436.5,131.3 436.9,133.7 438.0,131.2 438.4,131.2 438.7,130.7 439.1,133.3 439.4,132.1 440.5,131.5 440.9,130.2 441.3,130.8 441.6,129.4 442.0,128.6 443.1,128.8 443.4,130.0 443.8,131.8 444.2,131.1 444.5,129.6 445.6,129.2 446.0,128.1 446.3,128.3 446.7,127.8 447.1,126.3 448.2,126.1 448.5,126.0 448.9,126.2 449.2,127.6 449.6,126.5 450.7,126.2 451.1,125.6 451.4,125.8 451.8,123.3 452.2,123.3 453.2,123.5 453.6,122.7 454.0,124.2 454.3,124.1 454.7,124.2 455.8,120.9 456.1,118.8 456.5,119.3 456.9,118.2 457.2,116.9 458.7,117.5 459.0,119.6 459.4,118.9 459.8,123.1 460.9,122.9 461.2,123.1 461.6,121.8 462.0,122.5 462.3,123.0 463.4,125.9 463.8,124.7 464.1,125.3 464.5,125.4 464.9,124.8 468.5,123.0 468.8,123.7 469.2,122.5 469.6,122.2 469.9,122.1 471.0,123.3 471.4,123.3 471.7,124.2 472.1,125.6 472.5,125.3 473.6,126.2 473.9,126.8 474.3,127.7 474.7,127.5 475.0,129.3 476.1,132.3 476.5,131.2 476.8,128.4 477.2,130.2 477.6,127.9 478.6,125.5 479.0,125.7 479.4,122.2 479.7,122.8 480.1,116.7 481.2,119.4 481.5,117.5 481.9,117.6 482.3,118.0 482.6,118.8 483.7,120.5 484.1,118.6 484.5,116.7 484.8,115.8 485.2,114.2 486.3,116.1 486.6,114.2 487.0,114.3 487.4,115.3 487.7,116.5 488.8,116.1 489.2,117.7 489.5,118.8 489.9,117.6 490.3,116.6 491.3,119.3 491.7,119.0 492.1,118.7 492.4,119.5 492.8,119.9 493.9,121.1 494.3,123.6 494.6,122.7 495.0,123.6 495.3,125.1 496.4,124.2 496.8,122.9 497.2,123.0 497.5,123.5 497.9,122.3 499.3,121.2 499.7,119.5 500.1,119.0 500.4,120.9 501.5,119.0 501.9,119.5 502.2,120.1 502.6,120.3 503.0,118.3 504.0,116.4 504.4,116.7 504.8,115.3 505.1,114.2 505.5,114.2 509.1,114.5 509.5,115.6 509.9,114.2 510.2,114.2 510.6,116.2 511.7,119.5 512.0,118.5 512.4,119.2 512.8,116.8 513.1,118.5 514.2,116.6 514.6,116.0 514.9,116.0 515.3,116.4 515.7,120.4 516.8,115.3 517.1,115.3 517.5,116.7 517.8,117.5 518.2,117.5 519.3,118.9 519.7,117.7 520.0,116.3 520.4,116.9 520.7,115.8 521.8,114.2 522.2,117.1 522.6,119.3 522.9,119.3 523.3,122.9 524.4,119.7 524.7,120.3 525.1,117.7 525.5,118.4 525.8,114.3 526.9,114.2 527.3,114.2 527.6,114.2 528.0,114.2 528.4,114.2 529.5,115.4 529.8,116.5 530.2,116.7 530.5,114.5 530.9,114.2 532.0,114.2 532.4,114.2 533.1,116.0 533.4,114.2 534.5,120.7 534.9,116.7 535.3,114.2 535.6,117.2 536.0,116.8 537.1,117.2 537.4,117.0 537.8,118.2 538.2,115.6 538.5,122.0 539.6,122.2 540.0,121.0 540.3,121.1 540.7,121.5 541.1,118.1 543.2,114.2 543.6,115.6 544.7,114.2 545.1,117.5 545.4,120.6 545.8,119.1 546.1,124.4 547.2,122.1 547.6,123.9 548.0,124.7 548.3,122.6 548.7,123.1 549.8,123.0 550.1,125.3 550.5,128.1 550.9,128.1 551.2,126.9 552.3,124.3 552.7,123.6 553.0,123.3 553.4,122.9 553.8,121.8 554.9,121.9 555.2,124.0 555.6,122.4 555.9,124.7 556.3,121.0 557.4,120.0 557.8,116.2 558.1,116.6 558.5,117.5 558.8,114.2 559.9,114.2 560.3,114.2 560.7,118.2 562.5,123.5 562.8,122.9 563.2,123.5 563.6,122.0 563.9,120.6 565.0,118.7 565.4,118.6 565.7,119.5 566.1,119.5 566.5,120.2 567.6,120.7 567.9,120.2 568.3,120.2 568.6,117.7 569.0,117.6 570.1,117.1 570.5,116.3 570.8,114.2 571.2,115.5 571.6,116.9 572.6,116.9 573.0,116.8 573.4,116.2 573.7,115.3 574.1,116.0 575.2,114.7 575.5,114.2 575.9,115.2 576.3,114.2 576.6,114.2 577.7,116.6 578.1,117.5 578.4,118.6 578.8,118.4 579.2,122.3 580.3,123.7 580.6,121.8 581.0,123.1 581.4,123.2 581.7,126.3 582.8,128.6 583.2,126.8 583.5,127.9 583.9,126.2 584.3,129.0 585.3,126.6 585.7,124.8 586.1,124.0 586.4,124.0 586.8,123.5 587.9,121.9 588.2,122.4 588.6,122.6 589.0,123.1 589.3,123.4 590.4,121.9 590.8,121.7 591.1,121.9 591.5,120.3 591.9,121.1 593.0,122.5 593.3,121.3 593.7,120.0 594.1,121.6 594.4,122.3 595.5,121.7 595.9,122.2 596.2,124.4 596.6,126.4 600.6,126.7 600.9,128.3 601.3,127.9 601.7,125.8 602.0,125.7 603.1,124.4 603.5,123.2 603.9,122.6 604.2,123.7 604.6,122.7 605.7,124.7 606.0,124.1 606.4,124.1 606.8,124.4 607.1,123.7 608.2,124.3 608.6,124.0 608.9,123.8 609.3,122.5 609.7,122.6 610.7,122.8 611.1,123.2 611.5,123.2 611.8,123.6 612.2,123.4 613.3,122.7 613.7,122.0 614.0,120.3 614.4,121.0 614.7,120.6 615.8,122.3 616.2,121.8 616.6,122.8 616.9,122.3 617.3,122.1 618.4,121.6 618.7,121.1 619.1,120.7 619.5,120.6 619.8,120.2 620.9,118.9 621.3,121.8 621.6,121.4 622.0,121.8 622.4,121.0 623.4,121.1 623.8,120.7 624.2,120.7 624.5,118.5 624.9,119.4 626.0,119.4 626.4,118.8 626.7,118.3 627.1,119.1 627.4,118.2 628.5,118.0 628.9,117.4 629.3,116.4 629.6,116.6 630.0,116.7 631.4,115.7 631.8,116.0 632.2,115.9 632.5,115.8 633.6,116.7 634.0,115.1 634.3,115.8 634.7,115.7 635.1,115.3 636.2,114.2 636.5,114.2 636.9,116.2 637.2,116.8 637.6,115.4 638.7,115.8 639.1,115.6 639.4,114.2 639.8,114.2 640.1,114.2 641.2,114.2 641.6,114.2 642.0,115.5 642.3,116.2 642.7,114.5 643.8,114.5 644.1,114.2 644.5,114.2 644.9,114.2 648.9,114.2 649.2,114.2 649.6,114.2 649.9,114.2 650.3,114.2 651.4,116.6 651.8,116.3 652.1,116.8 652.5,116.5 652.8,115.1 653.9,114.2 654.3,114.2 654.7,114.2 655.0,114.2 655.4,114.2 656.5,114.7 656.8,117.1 657.2,117.1 657.6,117.3 657.9,116.3 659.0,116.3 659.4,116.4 659.7,115.8 660.1,114.2 660.5,115.4 661.6,116.2 661.9,116.1 662.3,115.7 662.6,114.7 663.0,114.2 664.1,114.2 664.5,114.2 664.8,114.2 666.6,114.2 667.0,114.4 667.4,114.2 667.7,114.9 668.1,114.2 669.2,115.4 669.5,116.1 669.9,114.7 670.3,115.2 670.6,115.4 671.7,119.4 672.1,123.3 672.4,121.0 672.8,121.3 673.2,120.2 674.3,121.0 674.6,120.8 676.8,121.0 677.2,120.3 677.5,121.9 677.9,120.2 678.2,117.8 679.3,118.4 679.7,118.9 680.1,119.1 680.4,116.3 680.8,114.2 681.9,114.2 682.2,116.2 682.6,115.8 683.0,120.9 683.3,125.0 684.4,122.3 684.8,123.1 685.1,122.3 685.5,124.7 685.9,124.4 687.0,126.1 687.3,123.3 687.7,125.3 688.0,122.7 688.4,122.8 689.9,127.9 690.2,125.9 690.6,126.0 691.0,125.1 692.0,125.9 692.4,124.4 692.8,124.4 693.1,124.5 693.5,124.7 694.6,129.3 694.9,130.2 695.3,128.3 695.7,130.5 696.0,127.4 697.1,125.4 697.5,125.0 697.8,124.5 698.2,123.9 698.6,123.9 699.7,123.0 700.0,121.8 700.4,122.8 700.8,122.2 701.1,123.2 702.2,120.5 702.6,119.5 702.9,118.5 703.3,119.4 703.7,124.3 704.7,125.9 705.1,125.8 705.5,125.3 705.8,130.6 706.2,131.0 707.3,128.7 707.6,129.7 708.0,127.8 708.4,125.4 708.7,128.8 709.8,136.6 710.2,136.1 710.5,135.2 710.9,136.0 711.3,133.4 712.4,131.8 712.7,130.3 713.1,129.5 713.5,128.7 713.8,126.4 714.9,125.3 715.3,124.8 715.6,124.9 716.0,124.9 716.4,125.9 717.4,125.0 717.8,125.4 718.2,125.9 718.5,128.5 718.9,128.7 720.0,128.7 720.3,129.0 720.7,132.9 721.1,132.1 721.4,131.7 722.5,133.9 722.9,132.9 723.3,133.3 723.6,131.5 724.0,129.3 725.8,128.9 726.2,128.4 726.5,127.0 727.6,125.1 728.0,123.1 728.3,121.6 728.7,119.0 729.1,121.2 730.1,117.5 733.1,116.7 733.4,132.7 733.8,129.3 734.1,131.5 735.2,127.2 735.6,129.2 736.0,127.6 736.3,128.1 736.7,123.9 737.8,122.2 738.1,121.5 738.5,120.2 738.9,123.2 739.2,122.0 740.3,120.2 740.7,120.7 741.0,119.2 741.4,120.6 741.8,122.1 742.8,119.1 743.2,114.2 743.6,114.2 743.9,114.2 744.3,117.6 745.4,116.8 745.8,121.7 746.1,122.1 746.5,129.7 746.8,136.1 747.9,135.7 748.3,132.2 748.7,130.6 749.0,129.6 749.4,133.9 750.5,135.4 750.8,137.2 751.2,133.1 751.6,135.0 751.9,132.2 753.0,131.3 753.4,128.8 753.7,129.1 754.1,128.7 754.5,127.6 755.6,126.3 755.9,125.4 756.3,124.2 756.6,121.7 757.0,125.0 758.1,125.7 758.5,126.1 758.8,125.2 759.2,127.7 759.5,128.9 760.6,126.6 761.0,125.8 761.4,125.0 761.7,124.5 762.1,124.5 763.2,125.1 763.5,127.6 764.3,129.8 764.6,131.0 765.7,130.9 766.1,130.1 766.4,130.1 766.8,130.1 767.2,131.2 768.3,132.6 768.6,129.9 769.0,129.9 769.3,128.0 769.7,127.6 770.8,126.9 771.2,127.0 771.5,126.8 771.9,126.4 772.2,124.7 773.3,126.0 776.6,122.3 777.0,118.5 777.3,114.7 778.4,114.2 778.8,114.2 779.1,114.2 779.5,114.2 779.9,114.2 781.0,116.6 781.3,119.6 781.7,116.1 782.0,117.1 782.4,114.2 783.5,115.7 783.9,120.6 784.2,119.7 784.6,120.4 784.9,130.6 786.0,129.5 786.4,127.7 786.8,125.1 787.1,122.5 787.5,125.1 788.6,125.6 788.9,128.4 789.3,127.9 789.7,128.9 790.0,123.2 791.1,122.9 791.5,121.1 791.8,120.1 792.2,119.9 792.6,122.9 793.7,121.2 794.0,120.5 794.4,120.8 794.7,120.9 795.1,119.8 796.2,121.9 796.6,119.7 796.9,119.7 797.3,120.5 798.7,147.6 799.1,142.6 799.5,140.1 799.8,129.8 800.2,128.1 801.3,125.4 801.6,125.6 802.0,123.4 802.4,122.2 802.7,121.8 803.8,119.2 804.2,114.4 804.5,121.1 804.9,120.0 805.3,119.0 806.4,120.0 806.7,119.5 807.1,121.0 809.3,116.4 809.6,114.3 810.0,114.3 810.4,115.6 811.4,115.3 811.8,115.2 812.2,114.2 812.5,119.7 812.9,118.7 814.0,118.3 814.3,116.9 814.7,114.2 815.1,114.7 815.4,116.5 816.5,117.0 816.9,118.1 817.2,117.1 817.6,116.3 818.0,116.5 819.4,114.2 819.8,114.2 820.2,114.7 820.5,114.9 821.6,114.8 822.0,115.3 822.3,114.2 822.7,114.2 823.1,115.7 824.1,114.7 824.5,116.6 824.9,115.9 825.2,118.2 825.6,118.2 826.7,116.3 827.0,114.5 827.4,114.2 827.8,114.2 828.1,117.1 829.2,116.1 829.6,114.2 829.9,115.0 830.3,114.2 830.7,114.2 831.8,114.9 832.1,114.2 832.5,115.9 832.9,114.2 833.2,114.2 834.3,114.2 834.7,114.3 835.0,115.9 835.4,114.2 835.8,114.2 836.8,114.2 837.2,114.2 837.6,114.2 837.9,114.5 838.3,115.5 839.4,114.2 839.7,114.2 840.1,114.8 840.5,117.5 840.8,119.6 841.9,117.7 842.3,114.4 842.7,114.2 843.0,114.2 843.4,114.2 844.5,114.2 844.8,114.2 845.2,114.2 845.6,116.1 845.9,114.2 847.0,114.2 847.4,115.3 847.7,114.2 848.1,114.2 848.5,114.2 849.5,114.2 849.9,114.9 850.3,117.8 850.6,114.2 851.0,114.2 852.1,114.2 852.4,117.6 852.8,118.9 853.2,126.0 853.5,119.1 854.6,118.1 855.0,118.0 855.4,117.1 855.7,114.2 856.1,114.7 857.2,115.3 857.5,114.2 857.9,114.2 858.3,117.6 858.6,116.4 859.7,114.2 860.1,114.2 860.4,114.2 860.8,114.6 861.2,116.9 862.2,114.2 862.6,114.2 865.9,114.2 866.2,121.1 867.3,119.0 867.7,121.2 868.1,115.0 868.4,114.2 868.8,114.3 869.9,116.1 870.2,114.2 870.6,119.7 871.0,120.4 871.3,118.9 872.4,115.8 872.8,120.8 873.1,116.4 873.5,118.1 873.9,118.5 875.0,117.7 875.3,122.1 875.7,122.3 876.0,117.8 876.4,117.8 877.5,114.5 877.9,114.2 878.2,114.9 878.6,114.2 878.9,119.8 880.0,124.4 880.4,130.4 880.8,128.3 881.1,127.1 881.5,134.9 882.6,134.2 882.9,129.1 883.3,127.8 883.7,128.0 884.0,125.7 885.1,123.0 885.5,124.6 885.8,125.2 886.2,125.4 886.6,123.3 887.7,123.1 888.0,126.0 888.4,124.8 888.7,126.7 889.1,123.8 890.2,123.6 890.6,128.1 890.9,123.8 891.3,124.7 891.6,122.6 892.7,118.0 893.1,116.4 893.5,115.1 893.8,115.4 894.2,114.2 895.3,116.3 895.6,118.6 896.0,119.9" fill="none" stroke="#2563eb" stroke-width="2.4"/><polyline points="70.0,114.2 70.4,114.2 70.7,114.2 71.1,114.2 72.2,114.2 72.5,116.8 72.9,118.9 73.3,118.5 73.6,127.1 74.7,125.4 75.1,123.0 75.4,126.9 75.8,126.9 76.2,122.9 77.3,118.3 77.6,120.8 78.0,123.8 78.3,124.4 78.7,114.3 79.8,114.2 80.2,114.2 80.5,116.9 80.9,115.9 81.3,118.7 82.3,129.4 82.7,129.3 83.1,129.8 83.4,129.0 83.8,133.3 84.9,128.6 85.2,122.7 85.6,128.6 86.0,131.4 86.3,137.4 87.4,133.2 87.8,131.1 88.1,133.5 88.5,135.6 88.9,140.7 90.0,139.6 90.3,137.3 90.7,137.5 91.0,133.0 91.4,129.5 92.5,130.5 92.9,129.8 93.2,129.4 93.6,131.2 94.0,119.5 95.0,116.5 95.4,114.2 95.8,115.6 96.1,116.4 96.5,117.9 97.6,125.5 97.9,121.6 98.3,121.9 98.7,116.6 99.0,117.2 100.1,114.2 100.5,114.2 101.2,114.2 101.6,115.3 102.7,117.6 103.0,114.2 103.4,121.2 103.8,114.2 104.1,114.4 105.2,114.2 105.6,116.2 105.9,119.6 106.3,122.2 106.7,121.3 107.7,116.8 108.1,127.2 108.5,124.6 108.8,143.2 112.8,188.9 113.2,174.8 113.6,168.6 113.9,158.3 114.3,158.2 115.4,155.9 115.7,150.6 116.1,146.0 116.5,149.5 116.8,145.5 117.9,132.5 118.3,135.4 118.6,136.3 119.0,122.8 119.4,122.1 120.4,124.5 120.8,125.8 121.2,133.2 121.5,131.5 121.9,152.4 123.0,133.7 123.3,130.5 123.7,127.1 124.1,114.2 124.4,124.1 125.5,144.5 125.9,132.1 126.3,140.0 126.6,151.2 127.0,159.3 128.1,183.5 128.4,186.1 128.8,196.8 129.2,203.6 129.5,194.3 130.6,212.1 131.0,198.4 131.3,184.3 131.7,187.8 132.1,186.1 133.1,191.3 133.5,189.5 133.9,191.1 134.2,182.5 134.6,185.6 136.1,173.3 136.4,175.9 136.8,174.1 137.1,177.5 138.2,179.8 138.6,169.3 139.0,173.4 139.3,172.7 139.7,167.3 140.8,165.3 141.1,171.9 141.5,167.4 141.9,168.8 142.2,173.5 143.3,169.8 143.7,165.9 144.0,163.4 144.4,156.8 146.6,153.3 146.9,155.0 147.3,149.4 148.4,149.9 148.8,149.9 149.1,148.7 149.5,154.9 149.8,156.7 150.9,155.3 151.3,150.5 151.7,153.5 152.0,156.6 152.4,169.6 153.5,168.8 153.8,162.5 154.2,166.5 154.6,164.9 154.9,163.4 156.0,148.3 156.4,146.5 156.7,146.5 157.1,146.7 157.5,143.9 158.6,140.9 158.9,137.3 159.3,138.4 159.6,144.7 160.0,143.7 161.1,150.6 161.5,142.0 161.8,141.6 162.2,137.7 162.5,129.8 163.6,129.4 164.0,126.5 164.4,124.0 166.2,128.2 166.5,120.4 166.9,114.2 167.3,114.2 167.6,114.2 168.7,114.2 169.1,114.2 169.4,114.2 169.8,114.2 170.2,125.2 171.3,114.2 171.6,120.0 172.0,127.8 172.3,156.4 172.7,152.9 173.8,135.9 174.2,134.5 174.5,131.6 174.9,131.8 175.2,157.8 176.3,154.9 176.7,149.9 177.1,136.0 177.4,138.9 177.8,134.0 178.9,124.4 179.2,123.9 179.6,123.7 180.0,125.5 180.3,132.4 181.4,130.3 181.8,135.7 182.1,140.0 182.5,141.5 182.9,132.8 184.0,118.9 184.3,119.2 184.7,128.3 185.0,136.0 185.4,131.0 186.5,126.4 186.9,125.6 187.2,132.6 187.6,129.5 187.9,115.3 189.0,118.8 189.4,115.6 189.8,115.3 190.1,118.7 190.5,124.6 191.6,137.2 191.9,134.1 192.3,147.9 192.7,148.2 193.0,142.5 194.1,139.5 194.5,134.8 194.8,138.7 195.2,141.8 195.6,128.7 196.7,134.5 197.0,141.5 197.4,139.4 197.7,150.6 198.1,149.7 199.2,148.2 199.6,147.0 199.9,147.5 203.2,135.8 204.3,117.9 204.6,115.9 205.0,120.0 205.4,121.0 205.7,121.9 206.8,126.4 207.2,121.7 207.5,121.7 207.9,123.6 208.3,131.1 209.4,134.5 209.7,133.5 210.1,128.7 210.4,124.2 210.8,134.0 211.9,130.8 212.3,123.7 212.6,119.1 213.0,114.2 213.4,114.2 214.4,114.2 214.8,117.6 215.2,123.5 215.5,123.1 215.9,129.4 217.0,123.6 217.3,124.8 217.7,125.2 218.1,120.7 218.4,118.9 219.5,114.2 219.9,117.9 220.2,125.7 220.6,124.6 221.0,117.2 222.1,119.7 222.4,114.2 222.8,114.2 223.2,115.4 223.5,114.4 224.6,119.6 225.0,121.1 225.3,129.2 225.7,129.4 226.1,135.5 227.1,130.1 227.5,128.9 227.9,127.8 228.2,120.2 228.6,122.3 229.7,116.6 230.0,126.5 230.4,121.4 230.8,122.3 231.1,117.2 232.2,114.5 232.6,117.1 232.9,114.2 233.3,114.2 234.8,114.2 235.1,114.2 235.5,114.2 235.9,114.2 236.2,116.2 237.3,122.2 237.7,114.2 238.0,116.2 238.4,127.9 238.8,129.2 239.8,122.7 240.2,131.5 240.6,127.3 240.9,117.6 241.3,117.1 242.4,114.2 242.7,126.4 243.1,124.8 243.5,141.1 243.8,143.8 244.9,136.7 245.3,127.7 245.7,129.4 246.0,130.7 246.4,129.6 247.5,120.8 247.8,114.2 248.2,114.2 251.1,118.3 251.5,117.2 252.5,136.3 252.9,138.1 253.3,153.0 253.6,149.6 254.0,163.6 255.1,155.0 255.5,162.2 255.8,151.5 256.2,169.4 256.5,171.3 257.6,190.5 258.0,201.9 258.4,198.5 258.7,185.4 259.1,183.5 260.2,195.1 260.5,190.5 260.9,188.3 261.3,184.0 261.6,198.1 262.7,192.9 263.1,197.9 263.4,206.3 263.8,206.6 264.2,194.9 265.2,194.0 265.6,188.9 266.0,193.8 266.3,187.3 266.7,181.9 268.2,184.2 268.5,188.0 268.9,187.1 269.2,195.2 270.3,204.3 270.7,205.2 271.1,200.9 271.4,204.2 271.8,202.4 272.9,189.7 273.2,190.1 273.6,188.5 274.0,189.5 274.3,184.7 275.4,190.8 275.8,189.4 276.1,186.4 276.5,181.7 276.9,185.9 279.0,192.5 279.4,199.3 280.5,199.7 280.9,196.4 281.2,194.2 281.6,199.6 281.9,187.3 283.0,179.5 283.4,179.2 283.8,180.8 284.1,179.3 284.5,184.8 285.6,182.6 285.9,165.5 286.3,165.3 286.7,163.4 287.0,165.2 288.1,164.1 288.5,163.1 288.8,168.5 289.2,172.1 289.6,169.3 290.7,169.8 291.0,174.5 291.4,174.1 291.7,170.4 292.1,175.3 293.6,181.4 293.9,190.4 294.3,188.2 294.6,188.1 295.7,189.4 296.1,186.1 296.5,183.4 296.8,182.5 297.2,173.7 298.3,172.5 298.6,178.9 299.0,175.4 299.4,174.8 299.7,190.4 300.8,189.9 301.2,190.2 301.5,184.1 301.9,189.6 302.3,191.6 303.4,185.0 303.7,184.0 304.1,190.2 304.4,183.0 304.8,188.9 305.9,187.0 306.3,187.4 306.6,183.8 307.0,183.0 307.3,189.5 308.4,206.7 308.8,224.9 309.2,224.0 309.5,214.6 309.9,218.7 311.0,205.8 311.3,205.7 311.7,201.1 312.1,204.2 312.4,207.1 313.5,200.4 313.9,194.3 314.2,197.3 314.6,201.7 315.0,204.5 316.1,205.0 316.4,215.9 316.8,209.9 317.1,213.3 317.5,223.0 318.6,216.1 319.0,210.6 319.3,209.5 319.7,219.7 320.1,217.0 321.1,218.4 321.5,219.2 321.9,212.5 322.2,212.6 322.6,215.3 323.7,205.8 324.0,199.6 324.4,201.8 324.8,202.0 325.1,197.4 326.2,199.7 326.6,207.5 326.9,212.8 327.3,219.0 327.7,214.0 329.5,217.5 329.8,214.3 330.2,214.6 331.3,211.7 331.7,211.0 332.0,216.3 332.4,212.9 335.3,206.2 336.4,205.6 336.7,211.0 337.1,205.1 337.5,207.9 337.8,206.0 338.9,212.0 339.3,207.0 339.6,208.3 340.0,206.4 340.4,203.1 341.5,201.0 341.8,202.7 342.2,209.5 342.6,213.1 342.9,208.4 344.0,210.3 344.4,215.6 344.7,217.6 345.1,212.6 345.5,215.4 346.5,214.8 346.9,214.9 347.3,217.6 347.6,209.5 348.0,210.6 349.1,211.2 349.4,211.1 349.8,210.8 350.2,215.9 350.5,210.4 351.6,208.0 352.0,207.9 352.3,207.6 352.7,209.7 353.1,213.5 354.2,214.4 354.5,216.5 354.9,215.2 355.3,213.9 355.6,209.2 356.7,210.1 357.1,207.0 357.4,199.3 357.8,190.6 358.2,193.1 359.2,190.1 359.6,193.7 360.0,198.2 360.3,195.2 360.7,203.6 361.8,211.4 362.1,207.9 362.5,207.8 362.9,204.2 363.2,207.1 364.3,207.3 364.7,203.5 365.1,211.1 365.4,207.1 365.8,205.1 367.2,207.5 367.6,212.7 368.0,217.9 368.3,217.5 369.4,215.2 369.8,220.1 370.1,215.0 370.5,223.4 370.9,227.5 371.9,223.3 372.3,218.4 372.7,221.9 373.0,217.4 373.4,222.0 374.5,221.2 374.9,232.6 375.2,229.0 375.6,238.7 375.9,244.6 379.6,237.2 379.9,239.9 380.3,235.3 380.7,236.6 381.0,240.6 382.1,245.9 382.5,240.8 382.8,238.9 383.2,237.7 383.6,235.4 384.6,237.2 385.0,243.5 385.4,238.4 385.7,248.2 386.1,243.6 387.2,242.7 387.6,238.7 387.9,243.0 388.3,245.9 388.6,251.6 389.7,266.7 390.1,275.9 390.5,280.0 390.8,273.0 391.2,271.5 392.3,285.4 392.6,305.4 393.0,287.3 393.4,278.8 393.7,275.8 394.8,276.6 395.2,276.9 395.5,274.7 395.9,277.3 396.3,285.4 397.4,288.1 397.7,289.6 398.1,277.0 398.4,280.3 398.8,274.7 400.6,276.0 401.0,281.8 401.3,279.5 402.4,293.2 402.8,284.8 403.2,289.0 403.5,283.6 403.9,283.9 405.0,286.2 405.3,289.5 405.7,296.3 406.1,304.1 406.4,302.3 407.5,323.1 407.9,326.3 408.2,314.6 408.6,311.9 409.0,302.0 411.1,302.6 411.5,313.2 412.6,316.5 413.0,312.1 413.3,306.1 413.7,308.0 414.0,304.9 415.1,308.2 415.5,303.1 415.9,304.5 416.2,303.7 416.6,295.5 417.7,298.0 418.0,308.0 418.4,305.4 418.8,304.4 419.1,303.5 420.2,300.6 420.6,294.1 420.9,295.0 421.3,294.3 422.8,286.3 423.1,284.9 423.5,280.6 423.8,285.3 424.2,278.6 425.3,283.8 425.7,280.4 426.0,274.5 426.4,277.5 426.7,271.3 427.8,269.0 428.2,269.6 428.6,275.3 428.9,267.6 429.3,262.3 430.4,257.1 430.7,252.3 431.1,259.5 431.5,252.8 431.8,254.8 432.9,251.7 433.3,252.4 433.6,259.2 434.0,257.2 434.4,258.7 435.5,266.5 435.8,270.8 436.2,270.0 436.5,269.9 436.9,277.6 438.0,273.0 438.4,275.4 438.7,273.9 439.1,278.9 439.4,278.7 440.5,281.4 440.9,277.9 441.3,280.1 441.6,280.0 442.0,285.8 443.1,283.9 443.4,292.5 443.8,296.7 444.2,293.0 444.5,287.2 445.6,288.2 446.0,287.3 446.3,292.2 446.7,283.4 447.1,283.6 448.2,284.2 448.5,285.0 448.9,280.9 449.2,284.8 449.6,287.8 450.7,284.7 451.1,286.8 451.4,295.0 451.8,291.5 452.2,292.4 453.2,294.3 453.6,295.7 454.0,295.4 454.3,299.1 454.7,301.2 455.8,302.1 456.1,298.2 456.5,297.9 456.9,299.7 457.2,293.8 458.7,292.0 459.0,296.8 459.4,300.8 459.8,310.7 460.9,311.2 461.2,310.7 461.6,313.8 462.0,317.4 462.3,318.8 463.4,320.8 463.8,315.0 464.1,321.6 464.5,321.8 464.9,324.1 468.5,332.9 468.8,332.2 469.2,326.3 469.6,329.6 469.9,320.2 471.0,319.8 471.4,320.6 471.7,327.1 472.1,329.4 472.5,330.6 473.6,342.1 473.9,342.7 474.3,339.6 474.7,342.3 475.0,351.7 476.1,355.2 476.5,342.0 476.8,337.4 477.2,340.6 477.6,328.1 478.6,327.2 479.0,329.9 479.4,333.6 479.7,336.6 480.1,325.8 481.2,325.3 481.5,317.7 481.9,321.0 482.3,322.7 482.6,324.5 483.7,327.9 484.1,327.8 484.5,327.4 484.8,329.2 485.2,327.2 486.3,331.6 486.6,319.6 487.0,319.1 487.4,314.7 487.7,317.2 488.8,309.2 489.2,307.0 489.5,308.0 489.9,308.0 490.3,303.9 491.3,308.6 491.7,309.4 492.1,308.4 492.4,308.7 492.8,308.5 493.9,314.9 494.3,321.6 494.6,321.4 495.0,320.9 495.3,321.7 496.4,320.1 496.8,315.4 497.2,317.2 497.5,318.7 497.9,317.1 499.3,315.4 499.7,314.9 500.1,307.0 500.4,305.7 501.5,302.3 501.9,301.8 502.2,302.6 502.6,301.8 503.0,295.9 504.0,289.2 504.4,289.3 504.8,290.0 505.1,287.3 505.5,284.6 509.1,282.6 509.5,287.2 509.9,283.1 510.2,284.7 510.6,288.8 511.7,294.6 512.0,293.8 512.4,295.7 512.8,290.0 513.1,292.5 514.2,288.6 514.6,288.4 514.9,290.7 515.3,293.9 515.7,300.1 516.8,289.7 517.1,288.5 517.5,292.5 517.8,292.8 518.2,297.3 519.3,299.1 519.7,296.4 520.0,290.4 520.4,291.3 520.7,290.0 521.8,292.2 522.2,298.6 522.6,300.1 522.9,301.6 523.3,307.1 524.4,302.8 524.7,305.3 525.1,305.0 525.5,310.1 525.8,308.0 526.9,310.1 527.3,305.5 527.6,303.7 528.0,299.6 528.4,300.8 529.5,302.4 529.8,303.7 530.2,303.0 530.5,299.6 530.9,298.3 532.0,294.2 532.4,292.9 533.1,293.5 533.4,290.8 534.5,292.7 534.9,293.2 535.3,293.5 535.6,296.4 536.0,294.0 537.1,288.0 537.4,286.7 537.8,290.6 538.2,291.8 538.5,300.3 539.6,305.5 540.0,307.6 540.3,307.9 540.7,304.9 541.1,300.6 543.2,300.5 543.6,301.9 544.7,297.1 545.1,300.8 545.4,304.0 545.8,304.7 546.1,310.2 547.2,303.8 547.6,306.0 548.0,307.8 548.3,308.3 548.7,309.5 549.8,306.9 550.1,312.8 550.5,318.4 550.9,319.3 551.2,319.3 552.3,321.1 552.7,320.7 553.0,324.8 553.4,323.9 553.8,318.2 554.9,320.0 555.2,323.8 555.6,325.8 555.9,322.5 556.3,320.8 557.4,320.0 557.8,317.8 558.1,317.9 558.5,311.5 558.8,307.5 559.9,310.9 560.3,311.6 560.7,317.9 562.5,323.6 562.8,319.9 563.2,320.4 563.6,322.3 563.9,320.2 565.0,314.9 565.4,314.3 565.7,317.4 566.1,320.2 566.5,321.9 567.6,320.0 567.9,317.4 568.3,320.1 568.6,314.3 569.0,314.2 570.1,317.6 570.5,318.9 570.8,319.3 571.2,322.2 571.6,322.3 572.6,324.1 573.0,312.6 573.4,313.4 573.7,313.9 574.1,304.4 575.2,302.1 575.5,303.9 575.9,306.8 576.3,303.2 576.6,301.5 577.7,304.7 578.1,305.8 578.4,307.1 578.8,306.2 579.2,315.8 580.3,318.8 580.6,319.8 581.0,322.7 581.4,321.4 581.7,326.3 582.8,332.0 583.2,329.0 583.5,335.5 583.9,332.7 584.3,334.2 585.3,329.6 585.7,325.7 586.1,325.8 586.4,328.3 586.8,325.5 587.9,319.5 588.2,322.5 588.6,323.4 589.0,329.0 589.3,330.9 590.4,328.0 590.8,328.8 591.1,331.3 591.5,331.6 591.9,334.2 593.0,332.2 593.3,333.0 593.7,334.5 594.1,338.0 594.4,331.0 595.5,333.6 595.9,335.9 596.2,335.1 596.6,336.2 600.6,336.7 600.9,339.6 601.3,338.5 601.7,334.9 602.0,339.0 603.1,342.8 603.5,341.5 603.9,344.5 604.2,352.6 604.6,355.0 605.7,358.8 606.0,357.4 606.4,355.6 606.8,354.6 607.1,349.5 608.2,347.3 608.6,348.5 608.9,348.6 609.3,350.4 609.7,347.3 610.7,342.2 611.1,343.5 611.5,344.4 611.8,344.3 612.2,347.0 613.3,347.8 613.7,347.5 614.0,344.8 614.4,348.5 614.7,348.9 615.8,348.1 616.2,347.6 616.6,351.4 616.9,349.6 617.3,352.1 618.4,354.8 618.7,354.1 619.1,357.3 619.5,356.5 619.8,357.9 620.9,360.3 621.3,367.2 621.6,366.6 622.0,367.5 622.4,366.6 623.4,364.5 623.8,363.8 624.2,369.7 624.5,371.6 624.9,372.7 626.0,374.0 626.4,373.5 626.7,377.3 627.1,373.8 627.4,373.1 628.5,372.1 628.9,374.4 629.3,373.2 629.6,365.0 630.0,363.3 631.4,368.0 631.8,368.8 632.2,372.1 632.5,374.0 633.6,378.5 634.0,377.8 634.3,379.4 634.7,377.5 635.1,378.7 636.2,379.0 636.5,376.9 636.9,384.5 637.2,379.7 637.6,380.2 638.7,385.5 639.1,384.2 639.4,379.4 639.8,372.5 640.1,373.5 641.2,376.6 641.6,382.8 642.0,385.9 642.3,385.7 642.7,389.7 643.8,387.5 644.1,375.8 644.5,372.5 644.9,370.2 648.9,366.2 649.2,365.4 649.6,360.6 649.9,357.5 650.3,357.2 651.4,361.0 651.8,356.6 652.1,361.3 652.5,354.4 652.8,352.1 653.9,351.8 654.3,349.2 654.7,350.7 655.0,353.0 655.4,351.4 656.5,346.7 656.8,345.9 657.2,348.5 657.6,349.6 657.9,348.7 659.0,345.2 659.4,347.9 659.7,347.1 660.1,347.6 660.5,351.4 661.6,353.4 661.9,351.5 662.3,355.8 662.6,353.9 663.0,352.2 664.1,346.1 664.5,347.6 664.8,349.0 666.6,352.3 667.0,352.6 667.4,355.6 667.7,355.6 668.1,358.6 669.2,350.9 669.5,354.9 669.9,349.2 670.3,348.8 670.6,351.7 671.7,352.8 672.1,355.4 672.4,353.8 672.8,352.9 673.2,347.2 674.3,343.1 674.6,345.1 676.8,339.5 677.2,339.4 677.5,342.4 677.9,338.8 678.2,338.7 679.3,338.8 679.7,339.6 680.1,342.9 680.4,341.4 680.8,337.4 681.9,336.1 682.2,337.6 682.6,336.7 683.0,341.2 683.3,345.4 684.4,341.9 684.8,344.6 685.1,344.2 685.5,346.2 685.9,347.7 687.0,346.8 687.3,344.0 687.7,346.1 688.0,346.4 688.4,348.3 689.9,351.6 690.2,351.5 690.6,353.3 691.0,351.7 692.0,352.3 692.4,351.3 692.8,353.1 693.1,355.7 693.5,356.5 694.6,358.5 694.9,360.5 695.3,358.1 695.7,360.9 696.0,360.1 697.1,358.4 697.5,359.0 697.8,359.9 698.2,361.8 698.6,363.3 699.7,366.4 700.0,362.4 700.4,363.5 700.8,359.4 701.1,359.0 702.2,358.6 702.6,356.3 702.9,355.9 703.3,353.9 703.7,352.0 704.7,354.5 705.1,362.4 705.5,364.7 705.8,366.6 706.2,365.6 707.3,367.5 707.6,369.8 708.0,362.1 708.4,364.5 708.7,368.2 709.8,372.5 710.2,372.5 710.5,372.7 710.9,372.5 711.3,373.7 712.4,374.3 712.7,373.4 713.1,376.1 713.5,372.6 713.8,372.3 714.9,371.1 715.3,373.6 715.6,374.8 716.0,375.7 716.4,374.2 717.4,374.5 717.8,376.5 718.2,378.5 718.5,379.4 718.9,374.8 720.0,380.7 720.3,379.8 720.7,382.1 721.1,381.5 721.4,384.2 722.5,388.3 722.9,388.0 723.3,389.0 723.6,390.4 724.0,391.8 725.8,390.6 726.2,387.9 726.5,387.4 727.6,386.2 728.0,371.6 728.3,366.4 728.7,351.3 729.1,334.7 730.1,301.8 733.1,276.8 733.4,308.3 733.8,303.9 734.1,315.5 735.2,307.7 735.6,318.8 736.0,321.3 736.3,325.9 736.7,311.5 737.8,310.5 738.1,308.1 738.5,306.5 738.9,311.1 739.2,308.2 740.3,307.4 740.7,311.6 741.0,315.3 741.4,315.1 741.8,315.2 742.8,309.5 743.2,299.0 743.6,301.1 743.9,288.4 744.3,292.8 745.4,289.9 745.8,294.7 746.1,292.1 746.5,299.5 746.8,306.9 747.9,308.9 748.3,306.1 748.7,305.2 749.0,304.8 749.4,317.7 750.5,319.6 750.8,320.4 751.2,313.4 751.6,317.0 751.9,312.4 753.0,309.2 753.4,308.7 753.7,311.0 754.1,311.9 754.5,306.5 755.6,307.2 755.9,304.1 756.3,304.8 756.6,300.7 757.0,310.7 758.1,312.9 758.5,311.8 758.8,309.8 759.2,309.4 759.5,311.2 760.6,310.6 761.0,305.4 761.4,305.2 761.7,305.0 762.1,305.7 763.2,303.8 763.5,310.5 764.3,322.5 764.6,327.2 765.7,327.9 766.1,325.0 766.4,325.8 766.8,326.7 767.2,331.7 768.3,332.8 768.6,322.5 769.0,325.1 769.3,324.6 769.7,323.3 770.8,321.5 771.2,321.2 771.5,324.9 771.9,324.2 772.2,321.2 773.3,322.8 776.6,325.2 777.0,320.1 777.3,314.9 778.4,314.0 778.8,315.9 779.1,312.1 779.5,313.6 779.9,310.1 781.0,309.2 781.3,312.8 781.7,309.9 782.0,311.1 782.4,305.9 783.5,306.8 783.9,311.5 784.2,307.9 784.6,307.0 784.9,315.2 786.0,315.4 786.4,315.7 786.8,313.9 787.1,308.3 787.5,309.5 788.6,311.1 788.9,309.8 789.3,311.3 789.7,312.9 790.0,303.0 791.1,304.0 791.5,302.9 791.8,302.6 792.2,306.3 792.6,312.6 793.7,310.5 794.0,310.8 794.4,312.1 794.7,310.8 795.1,312.6 796.2,315.5 796.6,315.4 796.9,315.8 797.3,318.2 798.7,346.7 799.1,340.3 799.5,336.5 799.8,331.4 800.2,329.8 801.3,328.9 801.6,328.7 802.0,327.5 802.4,327.5 802.7,327.5 803.8,326.2 804.2,326.3 804.5,326.0 804.9,326.3 805.3,326.0 806.4,326.6 806.7,327.2 807.1,327.7 809.3,323.7 809.6,321.3 810.0,319.1 810.4,319.8 811.4,315.1 811.8,314.5 812.2,309.6 812.5,313.4 812.9,315.3 814.0,316.6 814.3,314.3 814.7,312.4 815.1,312.7 815.4,316.0 816.5,318.3 816.9,320.5 817.2,320.8 817.6,318.5 818.0,320.4 819.4,319.2 819.8,317.4 820.2,316.5 820.5,316.9 821.6,315.7 822.0,317.8 822.3,314.7 822.7,315.0 823.1,317.9 824.1,316.9 824.5,317.3 824.9,316.8 825.2,320.1 825.6,319.7 826.7,318.6 827.0,313.7 827.4,307.9 827.8,309.3 828.1,311.9 829.2,310.4 829.6,309.7 829.9,309.6 830.3,307.0 830.7,305.5 831.8,307.3 832.1,303.8 832.5,304.6 832.9,302.6 833.2,302.1 834.3,301.8 834.7,301.7 835.0,302.9 835.4,300.1 835.8,297.5 836.8,294.7 837.2,291.2 837.6,291.1 837.9,288.1 838.3,290.3 839.4,289.4 839.7,287.7 840.1,287.8 840.5,295.8 840.8,297.9 841.9,296.3 842.3,292.8 842.7,291.8 843.0,291.7 843.4,292.7 844.5,290.8 844.8,288.6 845.2,285.2 845.6,285.5 845.9,282.5 847.0,278.6 847.4,280.3 847.7,275.2 848.1,273.5 848.5,264.1 849.5,254.5 849.9,256.2 850.3,263.2 850.6,255.1 851.0,251.6 852.1,248.8 852.4,252.3 852.8,255.5 853.2,265.4 853.5,255.4 854.6,254.7 855.0,257.9 855.4,257.0 855.7,246.2 856.1,249.0 857.2,247.8 857.5,248.8 857.9,245.9 858.3,251.5 858.6,251.1 859.7,248.9 860.1,249.2 860.4,244.3 860.8,241.5 861.2,246.0 862.2,238.7 862.6,236.5 865.9,229.3 866.2,239.0 867.3,241.4 867.7,247.2 868.1,240.1 868.4,238.9 868.8,249.8 869.9,247.3 870.2,240.0 870.6,241.6 871.0,240.1 871.3,234.4 872.4,228.6 872.8,231.1 873.1,225.3 873.5,229.3 873.9,236.5 875.0,235.2 875.3,238.8 875.7,237.9 876.0,231.0 876.4,232.5 877.5,230.8 877.9,235.3 878.2,236.0 878.6,230.1 878.9,237.8 880.0,241.0 880.4,244.1 880.8,242.0 881.1,244.5 881.5,256.1 882.6,256.7 882.9,252.3 883.3,249.4 883.7,249.7 884.0,248.5 885.1,243.3 885.5,245.6 885.8,248.0 886.2,246.4 886.6,242.4 887.7,238.5 888.0,241.0 888.4,241.6 888.7,245.8 889.1,242.8 890.2,245.8 890.6,251.5 890.9,242.9 891.3,245.7 891.6,244.1 892.7,239.6 893.1,238.6 893.5,237.2 893.8,236.3 894.2,234.8 895.3,236.7 895.6,235.4 896.0,237.6" fill="none" stroke="#10b981" stroke-width="2.4"/>
</svg>